<svg width="18" height="18" viewBox="0 0 18 18" fill="none" xmlns="http://www.w3.org/2000/svg">
<mask id="mask0_85_62" style="mask-type:alpha" maskUnits="userSpaceOnUse" x="0" y="0" width="18" height="18">
<rect width="18" height="18" fill="#D9D9D9"/>
</mask>
<g mask="url(#mask0_85_62)">
<path d="M7.95098 12.4499L13.2385 7.16238L12.1885 6.11238L7.95098 10.3499L5.81348 8.21238L4.76348 9.26238L7.95098 12.4499ZM9.00098 16.4999C7.96348 16.4999 6.98848 16.303 6.07598 15.9093C5.16348 15.5155 4.36973 14.9811 3.69473 14.3061C3.01973 13.6311 2.48535 12.8374 2.0916 11.9249C1.69785 11.0124 1.50098 10.0374 1.50098 8.99988C1.50098 7.96238 1.69785 6.98738 2.0916 6.07488C2.48535 5.16238 3.01973 4.36863 3.69473 3.69363C4.36973 3.01863 5.16348 2.48425 6.07598 2.0905C6.98848 1.69675 7.96348 1.49988 9.00098 1.49988C10.0385 1.49988 11.0135 1.69675 11.926 2.0905C12.8385 2.48425 13.6322 3.01863 14.3072 3.69363C14.9822 4.36863 15.5166 5.16238 15.9104 6.07488C16.3041 6.98738 16.501 7.96238 16.501 8.99988C16.501 10.0374 16.3041 11.0124 15.9104 11.9249C15.5166 12.8374 14.9822 13.6311 14.3072 14.3061C13.6322 14.9811 12.8385 15.5155 11.926 15.9093C11.0135 16.303 10.0385 16.4999 9.00098 16.4999ZM9.00098 14.9999C10.676 14.9999 12.0947 14.4186 13.2572 13.2561C14.4197 12.0936 15.001 10.6749 15.001 8.99988C15.001 7.32488 14.4197 5.90613 13.2572 4.74363C12.0947 3.58113 10.676 2.99988 9.00098 2.99988C7.32598 2.99988 5.90723 3.58113 4.74473 4.74363C3.58223 5.90613 3.00098 7.32488 3.00098 8.99988C3.00098 10.6749 3.58223 12.0936 4.74473 13.2561C5.90723 14.4186 7.32598 14.9999 9.00098 14.9999Z" fill="white"/>
</g>
</svg>
