<svg width="19" height="19" viewBox="0 0 19 19" fill="none" xmlns="http://www.w3.org/2000/svg">
<mask id="mask0_98_7" style="mask-type:alpha" maskUnits="userSpaceOnUse" x="0" y="0" width="19" height="19">
<rect x="0.121826" y="0.369568" width="18" height="18" fill="#D9D9D9"/>
</mask>
<g mask="url(#mask0_98_7)">
<path d="M5.37183 10.1196H12.8718V8.61957H5.37183V10.1196ZM9.12183 16.8696C8.08433 16.8696 7.10933 16.6727 6.19683 16.2789C5.28433 15.8852 4.49058 15.3508 3.81558 14.6758C3.14058 14.0008 2.6062 13.2071 2.21245 12.2946C1.8187 11.3821 1.62183 10.4071 1.62183 9.36957C1.62183 8.33207 1.8187 7.35707 2.21245 6.44457C2.6062 5.53207 3.14058 4.73832 3.81558 4.06332C4.49058 3.38832 5.28433 2.85394 6.19683 2.46019C7.10933 2.06644 8.08433 1.86957 9.12183 1.86957C10.1593 1.86957 11.1343 2.06644 12.0468 2.46019C12.9593 2.85394 13.7531 3.38832 14.4281 4.06332C15.1031 4.73832 15.6375 5.53207 16.0312 6.44457C16.425 7.35707 16.6218 8.33207 16.6218 9.36957C16.6218 10.4071 16.425 11.3821 16.0312 12.2946C15.6375 13.2071 15.1031 14.0008 14.4281 14.6758C13.7531 15.3508 12.9593 15.8852 12.0468 16.2789C11.1343 16.6727 10.1593 16.8696 9.12183 16.8696ZM9.12183 15.3696C10.7968 15.3696 12.2156 14.7883 13.3781 13.6258C14.5406 12.4633 15.1218 11.0446 15.1218 9.36957C15.1218 7.69457 14.5406 6.27582 13.3781 5.11332C12.2156 3.95082 10.7968 3.36957 9.12183 3.36957C7.44683 3.36957 6.02808 3.95082 4.86558 5.11332C3.70308 6.27582 3.12183 7.69457 3.12183 9.36957C3.12183 11.0446 3.70308 12.4633 4.86558 13.6258C6.02808 14.7883 7.44683 15.3696 9.12183 15.3696Z" fill="white"/>
</g>
</svg>
