<svg width="14" height="14" viewBox="0 0 14 14" fill="none" xmlns="http://www.w3.org/2000/svg">
<mask id="mask0_55_174" style="mask-type:alpha" maskUnits="userSpaceOnUse" x="0" y="0" width="14" height="14">
<rect width="14" height="14" fill="#D9D9D9"/>
</mask>
<g mask="url(#mask0_55_174)">
<path d="M4.08325 12.25C3.76242 12.25 3.48777 12.1358 3.25929 11.9073C3.03082 11.6788 2.91659 11.4042 2.91659 11.0833V3.5H2.33325V2.33333H5.24992V1.75H8.74992V2.33333H11.6666V3.5H11.0833V11.0833C11.0833 11.4042 10.969 11.6788 10.7405 11.9073C10.5121 12.1358 10.2374 12.25 9.91658 12.25H4.08325ZM9.91658 3.5H4.08325V11.0833H9.91658V3.5ZM5.24992 9.91667H6.41658V4.66667H5.24992V9.91667ZM7.58325 9.91667H8.74992V4.66667H7.58325V9.91667Z" fill="white"/>
</g>
</svg>
