<svg width="328" height="368" viewBox="0 0 328 368" fill="none" xmlns="http://www.w3.org/2000/svg">
<g clip-path="url(#clip0_91_235)">
<path d="M185.945 283.55C264.4 283.55 328 220.075 328 141.775C328 63.4749 264.4 0 185.945 0C107.491 0 43.8907 63.4749 43.8907 141.775C43.8907 220.075 107.491 283.55 185.945 283.55Z" fill="#F2F2F2"/>
<path d="M278.776 63.4015H18.5514C17.9934 63.3896 17.5506 62.9285 17.5626 62.3716C17.5742 61.8314 18.0101 61.3963 18.5514 61.3848H278.776C279.334 61.3967 279.777 61.8578 279.765 62.4147C279.753 62.9549 279.317 63.39 278.776 63.4015Z" fill="#CACACA"/>
<path d="M190.092 97.3853H118.156C112.752 97.3853 108.372 101.757 108.372 107.149V107.149C108.372 112.542 112.752 116.914 118.156 116.914H190.092C195.495 116.914 199.875 112.542 199.875 107.149C199.875 101.757 195.495 97.3853 190.092 97.3853Z" fill="white"/>
<path d="M71.6844 136.442H236.563C241.966 136.442 246.347 140.814 246.347 146.206C246.347 151.599 241.966 155.97 236.563 155.97H71.6844C66.2812 155.97 61.901 151.599 61.901 146.206C61.901 140.814 66.2812 136.442 71.6844 136.442Z" fill="white"/>
<path d="M71.6844 175.499H236.563C241.966 175.499 246.347 179.87 246.347 185.263C246.347 190.655 241.966 195.027 236.563 195.027H71.6844C66.2812 195.027 61.901 190.655 61.901 185.263C61.901 179.87 66.2812 175.499 71.6844 175.499Z" fill="white"/>
<path d="M51.252 367.141L50.8639 367.103C37.6983 365.748 25.7967 358.681 18.3209 347.78C16.2732 344.743 14.6168 341.46 13.3909 338.01L13.2731 337.681L13.6219 337.653C17.7868 337.318 22.0654 336.613 23.9661 336.277L11.7098 332.133L11.6341 331.77C10.9074 328.363 12.331 324.857 15.2293 322.916C18.1355 320.882 21.9894 320.817 24.9629 322.752C26.2973 323.603 27.693 324.445 29.0427 325.26C33.6809 328.06 38.4769 330.955 42.0728 334.917C47.5254 341.045 49.9154 349.301 48.5771 357.387L51.252 367.141Z" fill="#F2F2F2"/>
<path d="M95.8031 361.058L101.843 361.058L104.717 337.803L95.8014 337.804L95.8031 361.058Z" fill="#A0616A"/>
<path d="M95.59 367.347L114.166 367.347V367.112C114.166 363.127 110.929 359.896 106.936 359.896L103.542 357.327L97.2113 359.897L95.5897 359.897L95.59 367.347Z" fill="#2F2E41"/>
<path d="M47.3932 344.36L52.2247 347.977L68.5068 331.098L61.375 325.758L47.3932 344.36Z" fill="#A0616A"/>
<path d="M43.441 349.263L58.3003 360.389L58.4413 360.201C60.8373 357.013 60.1907 352.49 56.9968 350.098L55.8271 346.011L49.218 344.274L47.9209 343.303L43.441 349.263Z" fill="#2F2E41"/>
<path d="M67.4729 251.931C67.4729 251.931 67.8064 261.01 68.227 268.29C68.296 269.484 65.4932 270.781 65.5658 272.08C65.6139 272.942 66.1407 273.779 66.1897 274.678C66.2413 275.626 65.514 276.466 65.5658 277.446C65.6164 278.405 66.4462 279.504 66.4962 280.484C67.0349 291.039 68.9876 303.674 67.0323 307.206C66.0686 308.947 53.7858 333.063 53.7858 333.063C53.7858 333.063 60.6294 343.308 62.5847 339.893C65.1672 335.383 85.0708 314.28 85.0708 310.251C85.0708 306.226 89.6755 276.061 89.6755 276.061L92.8863 293.912L94.3585 297.449L93.8959 299.525L94.8473 302.328L94.8987 305.101L95.825 310.251C95.825 310.251 93.0387 350.373 94.6078 351.49C96.1818 352.612 103.803 354.627 104.702 352.612C105.597 350.597 111.419 310.738 111.419 310.738C111.419 310.738 112.358 292.473 113.375 275.495C113.433 274.509 114.128 273.319 114.181 272.348C114.245 271.221 113.805 269.758 113.864 268.665C113.927 267.411 114.484 266.528 114.538 265.328C114.954 256.053 112.621 244.76 111.878 243.647C109.634 240.291 107.616 237.608 107.616 237.608C107.616 237.608 77.395 227.698 69.3196 237.767L67.4729 251.931Z" fill="#2F2E41"/>
<path d="M97.6138 158.578L85.6337 156.187L80.043 163.759C69.6112 173.996 69.454 183.031 71.3163 197.514V217.84L69.9684 231.466C69.9684 231.466 65.197 241.427 70.1183 243.746C75.0395 246.065 107.365 245.867 110.451 244.941C113.537 244.016 110.862 242.879 110.052 238.564C108.529 230.46 109.548 234.369 109.653 231.789C111.155 194.775 107.656 179.579 107.301 175.585L101.208 164.556L97.6138 158.578Z" fill="#3F3D56"/>
<path d="M160.756 188.422C159.508 190.783 156.578 191.687 154.212 190.441C153.96 190.308 153.72 190.153 153.495 189.978L127.623 206.373L127.697 197.447L152.83 182.891C154.62 180.887 157.698 180.712 159.706 182.499C161.385 183.994 161.819 186.442 160.756 188.422Z" fill="#A0616A"/>
<path d="M88.1549 168.916L85.2094 168.604C82.4878 168.322 79.8175 169.486 78.1741 171.669C77.5446 172.497 77.0925 173.446 76.8459 174.455L76.8441 174.463C76.1053 177.503 77.2641 180.688 79.7848 182.546L89.9581 190.032C97.0974 199.66 110.515 206.047 126.254 211.237L150.718 196.073L142.065 185.614L125.285 194.589L100.342 175.319L100.328 175.307L90.8348 169.203L88.1549 168.916Z" fill="#3F3D56"/>
<path d="M93.5659 152.707C101.282 152.707 107.536 146.464 107.536 138.764C107.536 131.063 101.282 124.821 93.5659 124.821C85.8502 124.821 79.5954 131.063 79.5954 138.764C79.5954 146.464 85.8502 152.707 93.5659 152.707Z" fill="#A0616A"/>
<path d="M93.8886 152.71C93.7759 152.714 93.663 152.716 93.5503 152.719C93.502 152.844 93.45 152.968 93.3899 153.089L93.8886 152.71Z" fill="#2F2E41"/>
<path d="M97.7227 139.151C97.7446 139.288 97.7781 139.423 97.8228 139.555C97.8044 139.417 97.7708 139.281 97.7227 139.151Z" fill="#2F2E41"/>
<path d="M107.715 125.417C107.14 127.2 106.626 124.939 104.735 125.346C102.459 125.835 99.811 125.667 97.9475 124.275C95.1708 122.241 91.5725 121.694 88.315 122.809C85.1263 123.935 79.7842 124.729 78.9533 128.001C78.6645 129.139 78.5498 130.373 77.8498 131.316C77.2377 132.14 76.2717 132.61 75.4639 133.244C72.7362 135.386 74.821 141.472 76.1119 144.687C77.403 147.902 80.3644 150.245 83.6203 151.445C86.7706 152.606 90.1897 152.81 93.5503 152.719C94.1348 151.206 93.8823 149.459 93.4 147.89C92.8779 146.192 92.1048 144.553 91.8867 142.791C91.6685 141.028 92.1475 139.026 93.6285 138.041C94.9897 137.135 97.2048 137.687 97.7227 139.151C97.4205 137.321 99.2778 135.55 101.193 135.239C103.249 134.904 105.305 135.645 107.356 136.014C109.406 136.383 108.678 127.768 107.715 125.417Z" fill="#2F2E41"/>
<path d="M185.848 161.828C187.15 146.123 175.45 132.338 159.714 131.038C143.978 129.739 130.165 141.416 128.863 157.121C127.561 172.826 139.261 186.612 154.997 187.911C170.733 189.211 184.546 177.533 185.848 161.828Z" fill="url(#paint0_linear_91_235)"/>
<path d="M164.865 147.586L157.355 155.081L149.845 147.586C148.63 146.373 146.659 146.373 145.443 147.586C144.227 148.799 144.227 150.766 145.443 151.98L152.953 159.475L145.443 166.97C144.228 168.185 144.23 170.152 145.447 171.364C146.662 172.575 148.63 172.575 149.845 171.364L157.355 163.869L164.865 171.364C166.082 172.576 168.053 172.574 169.268 171.36C170.481 170.147 170.481 168.183 169.268 166.97L161.758 159.475L169.268 151.98C170.484 150.766 170.484 148.799 169.268 147.586C168.052 146.373 166.081 146.373 164.865 147.586Z" fill="white"/>
<path d="M146.089 135.492C146.932 138.026 145.557 140.762 143.018 141.603C142.748 141.693 142.469 141.758 142.187 141.799L136.13 171.782L129.728 165.549L136.602 137.371C136.393 134.695 138.398 132.357 141.079 132.148C143.323 131.974 145.394 133.356 146.089 135.492Z" fill="#A0616A"/>
<path d="M81.7234 174.274L79.4591 176.18C77.3712 177.945 76.3636 180.674 76.8045 183.369C76.9674 184.395 77.3401 185.377 77.8995 186.254L77.9041 186.261C79.5901 188.897 82.6955 190.268 85.7841 189.739L98.2394 187.595C110.143 189.118 124.051 183.877 138.699 176.135L144.672 148.019L131.119 147.009L125.991 165.308L94.7906 169.93L94.7723 169.933L83.7866 172.543L81.7234 174.274Z" fill="#3F3D56"/>
<path d="M152.645 367.828L0.663762 368C0.295992 367.999 -0.00118768 367.7 3.56885e-06 367.333C0.00118363 366.968 0.297664 366.672 0.663762 366.671L152.645 366.499C153.013 366.5 153.31 366.799 153.309 367.166C153.308 367.531 153.012 367.827 152.645 367.828Z" fill="#CACACA"/>
<path d="M31.7536 50.6279C34.3657 50.6279 36.4831 48.4675 36.4831 45.8025C36.4831 43.1375 34.3657 40.9771 31.7536 40.9771C29.1416 40.9771 27.0241 43.1375 27.0241 45.8025C27.0241 48.4675 29.1416 50.6279 31.7536 50.6279Z" fill="#3F3D56"/>
<path d="M48.092 50.6279C50.704 50.6279 52.8215 48.4675 52.8215 45.8025C52.8215 43.1375 50.704 40.9771 48.092 40.9771C45.4799 40.9771 43.3625 43.1375 43.3625 45.8025C43.3625 48.4675 45.4799 50.6279 48.092 50.6279Z" fill="#3F3D56"/>
<path d="M64.4304 50.6279C67.0424 50.6279 69.1599 48.4675 69.1599 45.8025C69.1599 43.1375 67.0424 40.9771 64.4304 40.9771C61.8183 40.9771 59.7008 43.1375 59.7008 45.8025C59.7008 48.4675 61.8183 50.6279 64.4304 50.6279Z" fill="#3F3D56"/>
<path d="M83.0605 49.6163C82.9152 49.6163 82.7702 49.5602 82.6607 49.4484L79.4694 46.1926C79.2567 45.9757 79.2567 45.629 79.4694 45.412L82.6607 42.1565C82.8772 41.9363 83.2317 41.9327 83.4515 42.1478C83.6724 42.3634 83.6762 42.7169 83.4602 42.9371L80.6516 45.8023L83.4602 48.6678C83.6762 48.8881 83.6724 49.2416 83.4515 49.4571C83.3428 49.5634 83.2016 49.6163 83.0605 49.6163Z" fill="#3F3D56"/>
<path d="M88.423 49.6163C88.2818 49.6163 88.1406 49.5635 88.0319 49.4572C87.811 49.2416 87.8072 48.8884 88.0232 48.6679L90.8315 45.8024L88.0232 42.9371C87.8072 42.7169 87.811 42.3634 88.0319 42.1478C88.2523 41.932 88.6067 41.9361 88.8227 42.1565L92.0137 45.4121C92.2264 45.629 92.2264 45.9757 92.0137 46.1926L88.8227 49.4485C88.7132 49.5602 88.5682 49.6163 88.423 49.6163Z" fill="#3F3D56"/>
<path d="M255.371 41.5358H249.437C248.76 41.5358 248.212 42.0828 248.212 42.7582V48.6859C248.212 49.3613 248.76 49.9083 249.437 49.9083H255.371C256.047 49.9083 256.601 49.3613 256.601 48.6859V42.7582C256.601 42.0828 256.047 41.5358 255.371 41.5358Z" fill="#3F3D56"/>
<path d="M240.83 41.5358H234.896C234.219 41.5358 233.671 42.0828 233.671 42.7582V48.6859C233.671 49.3613 234.219 49.9083 234.896 49.9083H240.83C241.506 49.9083 242.06 49.3613 242.06 48.6859V42.7582C242.06 42.0828 241.506 41.5358 240.83 41.5358Z" fill="#3F3D56"/>
<path d="M269.073 41.8148H263.139C262.462 41.8148 261.914 42.3618 261.914 43.0372V48.965C261.914 49.6404 262.462 50.1874 263.139 50.1874H269.073C269.749 50.1874 270.303 49.6404 270.303 48.965V43.0372C270.303 42.3618 269.749 41.8148 269.073 41.8148Z" fill="#3F3D56"/>
<path d="M179.633 44.0698H132.202C131.374 44.0698 130.708 44.7396 130.708 45.5602C130.708 46.3807 131.374 47.0505 132.202 47.0505H179.633C180.455 47.0505 181.127 46.3807 181.127 45.5602C181.127 44.7397 180.455 44.0698 179.633 44.0698Z" fill="#3F3D56"/>
</g>
<defs>
<linearGradient id="paint0_linear_91_235" x1="132.5" y1="129" x2="191.02" y2="189.981" gradientUnits="userSpaceOnUse">
<stop stop-color="#FF006E"/>
<stop offset="0.33" stop-color="#FB5607"/>
<stop offset="0.66" stop-color="#3A86FF"/>
<stop offset="1" stop-color="#8338EC"/>
</linearGradient>
<clipPath id="clip0_91_235">
<rect width="328" height="368" fill="white"/>
</clipPath>
</defs>
</svg>
