<svg width="686" height="429" viewBox="0 0 686 429" fill="none" xmlns="http://www.w3.org/2000/svg">
<g clip-path="url(#clip0_1_44)">
<path d="M0 427.11C0 427.77 0.53003 428.3 1.19006 428.3H684.48C685.14 428.3 685.67 427.77 685.67 427.11C685.67 426.45 685.14 425.92 684.48 425.92H1.19006C0.53003 425.92 0 426.45 0 427.11Z" fill="#3F3D56"/>
<path d="M283.497 428H69.9166C61.3873 428 54.4483 421.061 54.4483 412.531V15.4683C54.4483 6.93896 61.3873 0 69.9166 0H283.497C292.026 0 298.965 6.93896 298.965 15.4683V412.531C298.965 421.061 292.026 428 283.497 428ZM69.9166 2C62.4903 2 56.4483 8.04199 56.4483 15.4683V412.531C56.4483 419.958 62.4903 426 69.9166 426H283.497C290.923 426 296.965 419.958 296.965 412.531V15.4683C296.965 8.04199 290.923 2 283.497 2H69.9166Z" fill="#3F3D56"/>
<path d="M666.534 201.907C665.69 200.483 662.037 202.007 661.366 200.715C660.696 199.428 664.09 197.467 666.029 192.986C666.379 192.178 668.582 187.085 666.951 185.514C663.859 182.536 649.711 194.827 644.76 190.804C643.673 189.922 642.914 188.16 639.626 185.299C638.318 184.16 637.526 183.646 636.761 183.838C635.674 184.109 635.588 185.563 634.423 188.422C632.676 192.709 631.643 192.45 630.625 195.871C629.87 198.41 630.042 199.886 629.153 200.174C627.895 200.581 626.737 197.887 625.142 198.129C623.515 198.375 622.531 201.511 622.22 203.859C621.637 208.265 623.255 211.172 624.152 214.229C625.127 217.552 625.705 222.604 623.455 229.757L601.177 292.523C606.096 279.643 620.336 244.338 626.32 231.218C628.047 227.43 629.954 223.589 633.871 222.072C637.641 220.613 642.819 221.484 649.421 219.894C650.192 219.708 652.331 219.164 652.601 217.905C652.823 216.865 651.565 216.284 651.758 215.31C652.018 214.003 654.492 213.987 657.534 212.479C659.678 211.415 661.014 210.151 662.163 209.063C662.509 208.736 667.658 203.802 666.534 201.907Z" fill="#F2F2F2"/>
<path d="M578.889 234.949C577.946 234.953 577.641 237.186 576.813 237.142C575.988 237.099 576.004 234.868 574.365 232.623C574.069 232.219 572.205 229.668 570.963 230.015C568.61 230.673 570.56 241.163 567.157 242.433C566.411 242.711 565.327 242.576 562.974 243.364C562.037 243.678 561.557 243.918 561.43 244.349C561.25 244.96 561.938 245.422 563.005 246.819C564.606 248.913 564.18 249.346 565.565 250.832C566.594 251.936 567.368 252.277 567.253 252.796C567.089 253.531 565.433 253.323 565.092 254.175C564.743 255.044 565.998 256.432 567.061 257.262C569.055 258.819 570.949 258.864 572.708 259.306C574.62 259.786 577.267 260.96 580.128 264.129L604.506 293.173C599.604 287.043 586.385 269.866 581.672 263.144C580.311 261.203 578.976 259.159 579.362 256.799C579.733 254.528 581.655 252.238 582.779 248.539C582.911 248.107 583.261 246.899 582.721 246.404C582.275 245.995 581.626 246.445 581.204 246.069C580.637 245.564 581.344 244.345 581.481 242.417C581.578 241.058 581.343 240.037 581.14 239.16C581.079 238.895 580.143 234.945 578.889 234.949Z" fill="#F2F2F2"/>
<path d="M597.688 239.17L597.121 234.101L597.38 233.717C598.58 231.941 599.192 230.205 599.2 228.558C599.201 228.297 599.189 228.035 599.176 227.768C599.127 226.711 599.066 225.397 599.751 223.865C600.136 223.011 601.215 221.033 602.837 221.278C603.274 221.339 603.605 221.54 603.855 221.775C603.892 221.716 603.93 221.657 603.97 221.594C604.476 220.823 604.876 220.493 605.261 220.174C605.557 219.93 605.863 219.678 606.343 219.08C606.553 218.819 606.717 218.589 606.856 218.395C607.275 217.81 607.823 217.113 608.79 217.125C609.823 217.174 610.364 218.028 610.722 218.593C611.362 219.602 611.652 220.329 611.844 220.811C611.914 220.987 611.994 221.185 612.034 221.246C612.367 221.736 615.072 221.278 616.091 221.112C618.381 220.73 620.362 220.399 621.178 221.843C621.763 222.876 621.328 224.242 619.848 226.011C619.387 226.562 618.896 226.98 618.46 227.308C618.821 227.523 619.144 227.854 619.275 228.373C619.584 229.601 618.528 230.832 616.138 232.036C615.545 232.337 614.745 232.738 613.626 232.932C613.099 233.022 612.624 233.044 612.218 233.057C612.209 233.291 612.154 233.546 612.011 233.808C611.591 234.579 610.717 234.946 609.401 234.858C607.952 234.782 606.759 234.505 605.707 234.263C604.788 234.053 603.996 233.874 603.375 233.915C602.222 234.008 601.334 234.931 600.291 236.128L597.688 239.17Z" fill="#F2F2F2"/>
<path d="M600.322 208.994L595.564 210.828L595.126 210.675C593.103 209.964 591.27 209.813 589.675 210.223C589.421 210.289 589.171 210.367 588.916 210.446C587.906 210.762 586.65 211.154 584.994 210.88C584.071 210.725 581.884 210.183 581.71 208.551C581.658 208.113 581.768 207.743 581.932 207.441C581.866 207.42 581.799 207.398 581.728 207.375C580.854 207.082 580.433 206.779 580.027 206.487C579.715 206.262 579.394 206.03 578.695 205.718C578.388 205.581 578.124 205.48 577.902 205.396C577.23 205.138 576.416 204.785 576.183 203.846C575.968 202.835 576.657 202.095 577.113 201.605C577.926 200.73 578.555 200.266 578.973 199.957C579.126 199.845 579.297 199.718 579.346 199.663C579.735 199.217 578.606 196.717 578.187 195.773C577.237 193.655 576.415 191.823 577.604 190.667C578.455 189.839 579.886 189.913 581.973 190.897C582.623 191.203 583.152 191.572 583.58 191.91C583.696 191.506 583.934 191.11 584.403 190.851C585.513 190.242 586.971 190.951 588.742 192.957C589.184 193.455 589.775 194.126 590.246 195.16C590.467 195.647 590.609 196.1 590.724 196.49C590.953 196.439 591.213 196.428 591.503 196.5C592.355 196.71 592.931 197.462 593.18 198.758C593.474 200.179 593.509 201.403 593.542 202.482C593.572 203.424 593.6 204.236 593.797 204.826C594.18 205.918 595.298 206.543 596.72 207.248L600.322 208.994Z" fill="#F2F2F2"/>
<path d="M597.688 194.063L597.121 188.994L597.38 188.61C598.58 186.834 599.192 185.098 599.2 183.451C599.201 183.19 599.189 182.928 599.176 182.661C599.127 181.604 599.066 180.29 599.751 178.758C600.136 177.904 601.215 175.926 602.837 176.171C603.274 176.232 603.605 176.433 603.855 176.668C603.892 176.609 603.93 176.55 603.97 176.487C604.476 175.716 604.876 175.386 605.261 175.067C605.557 174.823 605.863 174.571 606.343 173.973C606.553 173.712 606.717 173.482 606.856 173.288C607.275 172.703 607.823 172.006 608.79 172.018C609.823 172.067 610.364 172.921 610.722 173.486C611.362 174.495 611.652 175.222 611.844 175.704C611.914 175.88 611.994 176.078 612.034 176.139C612.367 176.629 615.072 176.171 616.091 176.005C618.381 175.623 620.362 175.293 621.178 176.736C621.763 177.769 621.328 179.135 619.848 180.904C619.387 181.455 618.896 181.873 618.46 182.201C618.821 182.416 619.144 182.747 619.275 183.266C619.584 184.494 618.528 185.725 616.138 186.929C615.545 187.23 614.745 187.631 613.626 187.825C613.099 187.915 612.624 187.937 612.218 187.95C612.209 188.184 612.154 188.439 612.011 188.701C611.591 189.472 610.717 189.839 609.401 189.751C607.952 189.675 606.759 189.398 605.707 189.156C604.788 188.946 603.996 188.767 603.375 188.808C602.222 188.901 601.334 189.824 600.291 191.021L597.688 194.063Z" fill="#F2F2F2"/>
<path d="M602.874 292.44L601.812 291.775L600.574 291.917C600.554 291.802 600.487 291.537 600.385 291.124C599.831 288.858 598.141 281.961 596.732 271.101C595.748 263.519 595.191 255.725 595.076 247.931C594.961 240.124 595.331 234.214 595.627 229.464C595.851 225.881 596.122 222.47 596.389 219.146C597.099 210.268 597.768 201.881 597.27 192.597C597.16 190.524 596.929 186.21 594.408 181.619C592.946 178.956 590.932 176.592 588.421 174.595L589.982 172.632C592.754 174.84 594.982 177.458 596.606 180.415C599.4 185.505 599.652 190.206 599.774 192.465C600.28 201.913 599.604 210.381 598.886 219.345C598.622 222.656 598.35 226.053 598.128 229.621C597.834 234.327 597.468 240.185 597.582 247.891C597.695 255.593 598.245 263.292 599.216 270.778C600.608 281.501 602.273 288.295 602.82 290.527C603.112 291.718 603.173 291.968 602.874 292.44Z" fill="#F2F2F2"/>
<path d="M583.825 178.577C583.722 178.577 583.618 178.574 583.513 178.567C581.379 178.452 579.403 177.174 577.639 174.771C576.811 173.641 576.388 172.351 575.544 169.779C575.413 169.383 574.776 167.371 574.39 164.603C574.136 162.795 574.168 162.039 574.527 161.37C574.924 160.626 575.568 160.108 576.292 159.758C576.261 159.518 576.286 159.271 576.39 159.019C576.817 157.974 577.953 158.111 578.567 158.177C578.878 158.216 579.266 158.267 579.684 158.245C580.343 158.214 580.696 158.018 581.232 157.724C581.745 157.443 582.382 157.093 583.328 156.899C585.193 156.51 586.756 157.039 587.271 157.213C589.981 158.116 591.317 160.223 592.864 162.662C593.172 163.152 594.231 164.933 594.929 167.376C595.433 169.138 595.362 169.921 595.211 170.503C594.902 171.7 594.174 172.385 592.325 173.898C590.395 175.481 589.426 176.274 588.593 176.756C586.657 177.874 585.44 178.577 583.825 178.577Z" fill="#F2F2F2"/>
<path d="M299.56 176.506H53.8526V240.326H299.56V176.506Z" fill="url(#paint0_linear_1_44)"/>
<path d="M210.212 1H146.392V427H210.212V1Z" fill="url(#paint1_linear_1_44)"/>
<path opacity="0.2" d="M212.571 235.521C213.023 233.763 213.292 231.936 213.358 230.053L293.178 157.36L224.572 123.854L194.335 204.486C192.268 203.946 190.111 203.629 187.875 203.629C186.688 203.629 185.529 203.738 184.385 203.895L154.369 123.854L85.7628 157.36L162.446 227.196C162.397 227.846 162.347 228.495 162.347 229.157C162.347 231.359 162.655 233.483 163.179 235.521C116.174 250.211 96.9313 294.573 96.9313 294.573L155.965 342.438C152.444 307.229 173.946 271.184 185.57 254.569C186.33 254.637 187.097 254.685 187.875 254.685C188.654 254.685 189.42 254.637 190.181 254.569C201.805 271.184 223.306 307.23 219.785 342.438L278.819 294.573C278.819 294.573 259.576 250.211 212.571 235.521Z" fill="black"/>
<path d="M221.239 325.19C220.55 325.19 219.857 325.041 219.201 324.734C217.544 323.961 216.497 322.349 216.468 320.526C215.984 289.659 198.384 259.364 187.935 244.054C187.237 243.031 186.032 242.421 184.711 242.421H184.705C183.336 242.421 182.13 243.031 181.433 244.054C170.984 259.364 153.384 289.659 152.899 320.526C152.871 322.348 151.824 323.961 150.167 324.734C148.493 325.519 146.562 325.281 145.129 324.12L96.0616 284.335C94.3101 282.914 93.796 280.426 94.8394 278.417C99.7994 268.865 118.895 236.672 156.37 223.434C158.042 222.843 159.058 221.178 158.839 219.384C158.717 218.382 158.656 217.376 158.656 216.394C158.658 215.222 158.211 214.157 157.427 213.444L86.8853 149.2C85.7154 148.135 85.1509 146.563 85.3746 144.997C85.5987 143.431 86.5816 142.08 88.0035 141.386L146.736 112.703C147.941 112.114 149.347 112.062 150.594 112.557C151.841 113.053 152.826 114.059 153.297 115.314L180.529 187.935C181.091 189.434 182.533 190.412 184.169 190.371C185.403 190.343 186.654 190.414 187.902 190.576C189.663 190.812 191.324 189.818 191.94 188.172L219.262 115.314C219.733 114.059 220.718 113.053 221.965 112.557C223.212 112.062 224.619 112.115 225.823 112.703L284.555 141.386C285.977 142.08 286.96 143.431 287.184 144.998C287.408 146.563 286.843 148.135 285.673 149.2L211.768 216.508C211.079 217.135 210.65 217.991 210.561 218.918C210.541 219.118 210.52 219.318 210.496 219.518C210.294 221.203 211.341 222.849 212.986 223.43C250.47 236.665 269.568 268.864 274.529 278.417C275.572 280.426 275.058 282.914 273.307 284.335L224.239 324.12C223.367 324.827 222.31 325.19 221.239 325.19Z" fill="url(#paint2_linear_1_44)"/>
<path d="M635.656 428.392H429.593C421.064 428.392 414.124 421.452 414.124 412.923V308.077C414.124 299.548 421.064 292.608 429.593 292.608H635.656C644.185 292.608 651.124 299.548 651.124 308.077V412.923C651.124 421.452 644.185 428.392 635.656 428.392ZM429.593 294.608C422.166 294.608 416.124 300.65 416.124 308.077V412.923C416.124 420.35 422.166 426.392 429.593 426.392H635.656C643.082 426.392 649.124 420.35 649.124 412.923V308.077C649.124 300.65 643.082 294.608 635.656 294.608H429.593Z" fill="#3F3D56"/>
<path d="M553.308 292.729H518.102V428.272H553.308V292.729Z" fill="url(#paint3_linear_1_44)"/>
<path d="M650.124 343.777H415.124V378.983H650.124V343.777Z" fill="url(#paint4_linear_1_44)"/>
<path opacity="0.2" d="M525.752 383.285C526.722 383.534 527.73 383.682 528.768 383.719L568.869 427.751L587.353 389.905L542.873 373.225C543.17 372.084 543.345 370.895 543.345 369.661C543.345 369.006 543.285 368.367 543.198 367.736L587.353 351.178L568.869 313.332L530.345 355.633C529.986 355.606 529.628 355.579 529.263 355.579C528.048 355.579 526.876 355.749 525.752 356.038C517.648 330.108 493.177 319.493 493.177 319.493L466.772 352.058C486.195 350.116 506.079 361.977 515.245 368.389C515.207 368.809 515.18 369.232 515.18 369.661C515.18 370.09 515.207 370.513 515.245 370.933C506.079 377.345 486.195 389.206 466.772 387.264L493.177 419.83C493.177 419.83 517.648 409.214 525.752 383.285Z" fill="black"/>
<path d="M570.315 421.696C569.518 421.696 568.752 421.362 568.206 420.764L531.074 379.991C530.768 379.655 530.322 379.442 529.819 379.392L529.659 379.375C528.752 379.274 527.924 379.765 527.64 380.57C520.311 401.35 502.468 411.925 497.174 414.671C495.981 415.292 494.5 414.98 493.65 413.93L471.701 386.858C471.005 386.001 470.865 384.845 471.334 383.841C471.796 382.852 472.757 382.228 473.843 382.211C490.812 381.949 507.485 372.264 515.913 366.514C516.42 366.167 516.723 365.569 516.722 364.915C516.723 364.231 516.42 363.634 515.913 363.288C507.486 357.538 490.815 347.853 473.843 347.591C472.757 347.574 471.795 346.949 471.334 345.96C470.865 344.956 471.005 343.8 471.701 342.942L493.651 315.871C494.501 314.824 495.982 314.512 497.173 315.129C502.467 317.876 520.306 328.45 527.637 349.223C527.921 350.027 528.732 350.529 529.549 350.431C530.439 350.318 531.324 350.293 532.18 350.356L568.206 310.798C568.844 310.098 569.785 309.759 570.721 309.895C571.659 310.029 572.466 310.617 572.881 311.468L588.706 343.87C589.059 344.592 589.09 345.434 588.793 346.18C588.496 346.925 587.895 347.514 587.143 347.795L547.081 362.818C546.344 363.095 545.863 363.815 545.883 364.61L545.886 364.9C545.886 365.523 545.843 366.157 545.757 366.784C545.648 367.591 546.15 368.394 546.953 368.695L587.144 383.767C587.895 384.049 588.497 384.638 588.794 385.384C589.09 386.13 589.058 386.971 588.706 387.692L572.881 420.095C572.466 420.945 571.659 421.533 570.721 421.667C570.586 421.687 570.45 421.696 570.315 421.696Z" fill="url(#paint5_linear_1_44)"/>
<path d="M383.69 171.688H351.463V161.077C351.463 143.291 365.904 128.851 383.69 128.851L383.69 171.688Z" fill="#2F2E41"/>
<path d="M376.547 151.88L382.088 176.802L349.619 171.41L362.85 147.84L376.547 151.88Z" fill="#FFB6B6"/>
<path opacity="0.1" d="M376.547 151.88L382.088 176.802L349.619 171.41L362.85 147.84L376.547 151.88Z" fill="black"/>
<path d="M376.547 205.118H345.417V251.19H376.547V205.118Z" fill="#FFB6B6"/>
<path d="M396.781 288.857L389.933 325.59C389.933 325.59 394.291 351.116 381.216 377.265L372.5 404.036L359.426 402.168C359.426 402.168 367.519 382.245 367.519 373.529C367.519 364.813 369.387 331.193 369.387 331.193L368.453 292.83L396.781 288.857Z" fill="#FFB6B6"/>
<path d="M357.558 401.546C357.558 401.546 372.5 395.942 373.745 404.036L373.123 407.772C373.123 407.772 378.726 424.581 370.632 425.827C362.539 427.072 355.068 428.94 354.445 425.204C353.822 421.469 353.832 416.806 355.384 413.534C356.935 410.262 357.558 401.546 357.558 401.546Z" fill="#2F2E41"/>
<path d="M349.651 283.159L346.013 320.347C346.013 320.347 334.728 343.654 340.014 372.408L340.941 400.547L354.019 402.389C354.019 402.389 351.786 381.001 354.21 372.629C356.634 364.256 364.19 331.443 364.19 331.443L375.756 294.854L349.651 283.159Z" fill="#FFB6B6"/>
<path d="M355.987 402.31C355.987 402.31 343.192 392.772 339.745 400.201L339.304 403.962C339.304 403.962 329.425 422.553 336.853 426C344.281 429.447 350.76 429.316 352.397 425.901C354.034 422.486 355.321 418.004 354.741 414.43C354.161 410.856 355.987 402.31 355.987 402.31Z" fill="#2F2E41"/>
<path d="M388.687 229.711L415.459 286.366C415.459 286.366 361.605 313.449 329.853 313.449L345.618 229.711L388.687 229.711Z" fill="#2F2E41"/>
<path d="M364.718 163.405L380.282 165.895L379.037 205.118L396.47 239.984L374.057 251.19C374.057 251.19 356.624 218.193 353.511 197.647C350.398 177.102 352.266 162.16 352.266 162.16L364.718 163.405Z" fill="#E6E6E6"/>
<path d="M352.888 164.65L337.324 167.14L338.569 206.364L334.833 242.474L343.55 252.435C343.55 252.435 360.982 219.438 364.095 198.893C367.208 178.347 365.34 163.405 365.34 163.405L352.888 164.65Z" fill="#E6E6E6"/>
<path d="M376.858 166.829L380.282 165.895C380.282 165.895 392.423 164.339 394.291 169.32C396.158 174.3 395.536 203.562 395.536 203.562C395.536 203.562 398.748 239.476 386.247 239.885C373.745 240.295 376.236 210.41 376.236 210.41L376.858 166.829Z" fill="#E6E6E6"/>
<path d="M371.114 158.719C380.013 158.719 387.227 151.505 387.227 142.606C387.227 133.707 380.013 126.493 371.114 126.493C362.215 126.493 355 133.707 355 142.606C355 151.505 362.215 158.719 371.114 158.719Z" fill="#FFB6B6"/>
<path d="M366.073 164.782C369.53 163.905 373.449 167.597 374.828 173.03C375.408 175.193 375.462 177.464 374.985 179.652L376.471 185.828L376.58 185.823L388.296 213.434C391.02 219.854 390.732 227.224 387.258 233.271C385.191 236.868 382.478 239.286 379.292 236.817C374.005 232.721 370.553 209.268 368.976 195.796L365.331 182.102C363.868 180.405 362.832 178.383 362.311 176.205C360.932 170.773 362.616 165.659 366.073 164.782Z" fill="#FFB6B6"/>
<path d="M351.021 166.829L347.596 165.895C347.596 165.895 335.456 164.339 333.588 169.32C331.72 174.3 332.343 203.562 332.343 203.562C332.343 203.562 329.13 239.476 341.632 239.885C354.134 240.295 351.643 210.41 351.643 210.41L351.021 166.829Z" fill="#E6E6E6"/>
<path d="M361.806 164.782C358.349 163.905 354.43 167.597 353.051 173.03C352.471 175.193 352.417 177.464 352.893 179.652L351.408 185.828L351.299 185.823L339.583 213.434C336.859 219.854 337.147 227.224 340.621 233.271C342.688 236.868 345.401 239.286 348.587 236.817C353.873 232.721 357.326 209.268 358.903 195.796L362.548 182.102C364.011 180.405 365.047 178.383 365.568 176.205C366.947 170.773 365.262 165.659 361.806 164.782Z" fill="#FFB6B6"/>
<path d="M340.265 155.642C341.085 153.15 342.703 150.968 343.427 148.446C344.388 145.098 346.434 152.526 346.634 149.048C347.013 142.438 357.102 125.436 362.861 122.17C368.62 118.904 371.928 119.888 377.795 122.956C377.795 122.956 380.643 123.137 384.189 124.887C387.735 126.638 390.926 129.441 392.305 133.148C393.398 136.085 393.277 139.311 393.643 142.424C394.66 151.097 399.522 159.345 398.478 168.014C398.153 170.719 397.125 173.516 394.913 175.107C392.702 176.698 389.129 176.525 387.673 174.222C387.176 173.436 386.966 172.504 386.54 171.678C386.115 170.851 385.345 170.081 384.416 170.106C383.019 170.145 382.308 172.019 382.859 173.304C383.41 174.588 384.704 175.363 385.92 176.053C383.025 177.355 379.434 176.95 376.903 175.035C374.372 173.12 373.005 169.775 373.471 166.635C374.127 162.211 380.573 163.127 381.332 158.719C381.885 155.511 383.826 150.142 383.297 146.929C382.768 143.716 380.229 147.606 382.904 145.75C379.961 147.169 373.666 137.463 370.586 136.376C367.505 135.289 364.893 132.936 363.492 129.984C360.224 134.721 357.35 133.435 356.18 139.069C355.009 144.703 356.091 157.504 360.91 160.649C358.982 161.965 357.444 163.847 356.539 165.999C356.027 167.218 355.694 168.552 354.844 169.564C353.219 171.498 350.218 171.616 347.827 170.803C344.862 169.794 342.326 167.58 340.928 164.777C339.53 161.974 339.287 158.617 340.265 155.642Z" fill="#2F2E41"/>
</g>
<defs>
<linearGradient id="paint0_linear_1_44" x1="63" y1="8.50001" x2="290" y2="426" gradientUnits="userSpaceOnUse">
<stop offset="0.124" stop-color="#FF006E"/>
<stop offset="0.404" stop-color="#FB5607"/>
<stop offset="0.609" stop-color="#8338EC"/>
<stop offset="0.904" stop-color="#3A86FF"/>
</linearGradient>
<linearGradient id="paint1_linear_1_44" x1="59.5" y1="1" x2="299" y2="427" gradientUnits="userSpaceOnUse">
<stop offset="0.0233876" stop-color="#FF006E"/>
<stop offset="0.344" stop-color="#FB5607"/>
<stop offset="0.694" stop-color="#8338EC"/>
<stop offset="1" stop-color="#3A86FF"/>
</linearGradient>
<linearGradient id="paint2_linear_1_44" x1="58" y1="4.5" x2="296.5" y2="423" gradientUnits="userSpaceOnUse">
<stop stop-color="#FF006E"/>
<stop offset="0.329" stop-color="#FB5607"/>
<stop offset="0.684" stop-color="#8338EC"/>
<stop offset="1" stop-color="#3A86FF"/>
</linearGradient>
<linearGradient id="paint3_linear_1_44" x1="415.5" y1="293" x2="652" y2="428" gradientUnits="userSpaceOnUse">
<stop stop-color="#FF006E"/>
<stop offset="0.33" stop-color="#FB5607"/>
<stop offset="0.66" stop-color="#8338EC"/>
<stop offset="1" stop-color="#3A86FF"/>
</linearGradient>
<linearGradient id="paint4_linear_1_44" x1="422.5" y1="299" x2="650" y2="426.5" gradientUnits="userSpaceOnUse">
<stop stop-color="#FF006E"/>
<stop offset="0.33" stop-color="#FB5607"/>
<stop offset="0.66" stop-color="#8338EC"/>
<stop offset="1" stop-color="#3A86FF"/>
</linearGradient>
<linearGradient id="paint5_linear_1_44" x1="420.5" y1="294" x2="647.5" y2="422" gradientUnits="userSpaceOnUse">
<stop stop-color="#FF006E"/>
<stop offset="0.33" stop-color="#FB5607"/>
<stop offset="0.66" stop-color="#8338EC"/>
<stop offset="1" stop-color="#3A86FF"/>
</linearGradient>
<clipPath id="clip0_1_44">
<rect width="685.67" height="428.525" fill="white"/>
</clipPath>
</defs>
</svg>
