<svg width="587" height="427" viewBox="0 0 587 427" fill="none" xmlns="http://www.w3.org/2000/svg">
<g clip-path="url(#clip0_87_129)">
<path d="M341.927 75.2752C352.928 75.2752 361.846 66.3552 361.846 55.3519C361.846 44.3486 352.928 35.4287 341.927 35.4287C330.925 35.4287 322.007 44.3486 322.007 55.3519C322.007 66.3552 330.925 75.2752 341.927 75.2752Z" fill="#F2F2F2"/>
<path d="M496.451 370.959C526.06 348.403 540.202 310.5 531.348 274.343C531.128 273.445 530.896 272.548 530.652 271.654C524.782 250.192 510.261 229.794 489.097 222.936C471.327 217.178 451.93 221.606 433.391 219.316C396.998 214.821 368.783 185.37 348.931 154.534C329.078 123.698 313.821 89.1822 287.441 63.7075C243.958 21.7167 173.026 12.676 119.114 40.0089C65.2016 67.3419 30.8599 127.982 32.3245 188.418C33.7891 248.854 69.6611 306.635 121.756 337.291C140.894 348.553 163.028 356.531 185.056 353.739C204.17 351.317 221.537 341.045 240.561 337.996C270.47 333.201 300.189 346.726 326.059 362.488C351.929 378.249 376.917 396.931 406.314 404.237C434.859 411.332 470.223 390.939 496.451 370.959Z" fill="#F2F2F2"/>
<path d="M453.911 41.278C453.262 40.8452 452.605 40.4348 451.956 40.017C433.194 28.0154 413.084 18.2655 392.042 10.9687L387.162 78.2879H356.232V1.14163C354.284 0.738705 352.322 0.35816 350.36 0V78.2879H313.603C293.367 78.2879 273.961 70.248 259.652 55.9371C245.344 41.6261 237.305 22.2162 237.305 1.97743C235.336 2.40275 233.381 2.85784 231.426 3.34285V78.2879H201.488L196.84 14.0951C175.216 22.3897 154.686 33.2975 135.709 46.5758C135.381 46.7996 135.053 47.0309 134.732 47.2548C133.083 48.4113 131.457 49.5903 129.838 50.7842V307.607H218.072L216.513 286.006L207.934 167.403H380.709L372.13 286.006L370.571 307.607H457.827V43.8746C456.529 42.9942 455.224 42.1286 453.911 41.278ZM231.426 147.816H206.516L201.913 84.1677H231.426V147.816ZM350.36 147.816H308.522V146.555C308.522 145.948 308.403 145.348 308.171 144.788C307.939 144.228 307.598 143.72 307.169 143.291C306.74 142.863 306.231 142.524 305.671 142.292C305.111 142.061 304.51 141.942 303.904 141.943H285.716C285.11 141.943 284.511 142.062 283.951 142.294C283.392 142.526 282.883 142.865 282.455 143.293C282.027 143.722 281.687 144.23 281.456 144.79C281.224 145.349 281.105 145.949 281.105 146.555V147.816H237.305V84.1677H350.36V147.816ZM356.232 147.816V84.1677H386.737L382.134 147.816H356.232Z" fill="url(#paint0_linear_87_129)"/>
<path d="M-3.05176e-05 324.054C6.48102 331.734 13.491 338.952 20.9787 345.655L566.021 346.401C573.509 339.699 580.519 332.481 587 324.8L-3.05176e-05 324.054Z" fill="url(#paint1_linear_87_129)"/>
<path d="M369.611 254.884V318.834C369.612 319.649 369.936 320.43 370.512 321.006C371.088 321.583 371.869 321.907 372.684 321.907H467.435C468.249 321.907 469.031 321.583 469.607 321.006C470.183 320.43 470.507 319.649 470.508 318.834V254.884C470.506 254.07 470.181 253.29 469.605 252.714C469.029 252.139 468.249 251.815 467.435 251.814H372.684C371.87 251.815 371.089 252.139 370.513 252.714C369.937 253.29 369.613 254.07 369.611 254.884Z" fill="#3F3D56"/>
<path d="M371.834 255.68V318.045C371.835 318.48 372.008 318.898 372.316 319.206C372.624 319.514 373.041 319.687 373.476 319.688H466.646C467.081 319.687 467.499 319.514 467.806 319.206C468.114 318.898 468.287 318.48 468.288 318.045V255.68C468.288 255.244 468.115 254.826 467.807 254.517C467.499 254.209 467.082 254.035 466.646 254.034H373.476C373.04 254.035 372.623 254.209 372.315 254.517C372.007 254.826 371.834 255.244 371.834 255.68Z" fill="url(#paint2_linear_87_129)"/>
<path d="M367.629 331.306C367.803 331.523 368.024 331.699 368.275 331.819C368.526 331.939 368.801 332.001 369.079 331.999H470.535C470.812 331.999 471.086 331.937 471.337 331.817C471.587 331.698 471.808 331.524 471.982 331.309C472.157 331.093 472.282 330.841 472.347 330.571C472.412 330.302 472.417 330.021 472.36 329.749L470.785 322.267C470.72 321.962 470.579 321.678 470.376 321.441C470.173 321.204 469.914 321.022 469.622 320.911C469.411 320.828 469.187 320.786 468.96 320.786H370.648C370.421 320.786 370.197 320.828 369.985 320.911C369.694 321.022 369.435 321.204 369.232 321.441C369.029 321.678 368.888 321.962 368.823 322.267L367.248 329.749C367.192 330.021 367.197 330.301 367.263 330.57C367.329 330.84 367.454 331.091 367.629 331.306Z" fill="#2F2E41"/>
<path d="M465.479 324.009H467.875C468.076 324.009 468.239 323.845 468.239 323.644V322.498C468.239 322.296 468.076 322.133 467.875 322.133H465.479C465.278 322.133 465.115 322.296 465.115 322.498V323.644C465.115 323.845 465.278 324.009 465.479 324.009Z" fill="#3F3D56"/>
<path d="M459.229 324.009H461.626C461.827 324.009 461.99 323.845 461.99 323.644V322.498C461.99 322.296 461.827 322.133 461.626 322.133H459.229C459.028 322.133 458.865 322.296 458.865 322.498V323.644C458.865 323.845 459.028 324.009 459.229 324.009Z" fill="#3F3D56"/>
<path d="M452.98 324.009H455.376C455.577 324.009 455.74 323.845 455.74 323.644V322.498C455.74 322.296 455.577 322.133 455.376 322.133H452.98C452.779 322.133 452.615 322.296 452.615 322.498V323.644C452.615 323.845 452.779 324.009 452.98 324.009Z" fill="#3F3D56"/>
<path d="M446.73 324.009H449.127C449.328 324.009 449.491 323.845 449.491 323.644V322.498C449.491 322.296 449.328 322.133 449.127 322.133H446.73C446.529 322.133 446.366 322.296 446.366 322.498V323.644C446.366 323.845 446.529 324.009 446.73 324.009Z" fill="#3F3D56"/>
<path d="M440.481 324.009H442.877C443.078 324.009 443.241 323.845 443.241 323.644V322.498C443.241 322.296 443.078 322.133 442.877 322.133H440.481C440.279 322.133 440.116 322.296 440.116 322.498V323.644C440.116 323.845 440.279 324.009 440.481 324.009Z" fill="#3F3D56"/>
<path d="M434.231 324.009H436.627C436.829 324.009 436.992 323.845 436.992 323.644V322.498C436.992 322.296 436.829 322.133 436.627 322.133H434.231C434.03 322.133 433.867 322.296 433.867 322.498V323.644C433.867 323.845 434.03 324.009 434.231 324.009Z" fill="#3F3D56"/>
<path d="M427.981 324.009H430.378C430.579 324.009 430.742 323.845 430.742 323.644V322.498C430.742 322.296 430.579 322.133 430.378 322.133H427.981C427.78 322.133 427.617 322.296 427.617 322.498V323.644C427.617 323.845 427.78 324.009 427.981 324.009Z" fill="#3F3D56"/>
<path d="M421.732 324.009H424.128C424.329 324.009 424.492 323.845 424.492 323.644V322.498C424.492 322.296 424.329 322.133 424.128 322.133H421.732C421.531 322.133 421.368 322.296 421.368 322.498V323.644C421.368 323.845 421.531 324.009 421.732 324.009Z" fill="#3F3D56"/>
<path d="M415.482 324.009H417.879C418.08 324.009 418.243 323.845 418.243 323.644V322.498C418.243 322.296 418.08 322.133 417.879 322.133H415.482C415.281 322.133 415.118 322.296 415.118 322.498V323.644C415.118 323.845 415.281 324.009 415.482 324.009Z" fill="#3F3D56"/>
<path d="M409.233 324.009H411.629C411.83 324.009 411.993 323.845 411.993 323.644V322.498C411.993 322.296 411.83 322.133 411.629 322.133H409.233C409.032 322.133 408.868 322.296 408.868 322.498V323.644C408.868 323.845 409.032 324.009 409.233 324.009Z" fill="#3F3D56"/>
<path d="M402.983 324.009H405.38C405.581 324.009 405.744 323.845 405.744 323.644V322.498C405.744 322.296 405.581 322.133 405.38 322.133H402.983C402.782 322.133 402.619 322.296 402.619 322.498V323.644C402.619 323.845 402.782 324.009 402.983 324.009Z" fill="#3F3D56"/>
<path d="M396.734 324.009H399.13C399.331 324.009 399.494 323.845 399.494 323.644V322.498C399.494 322.296 399.331 322.133 399.13 322.133H396.734C396.532 322.133 396.369 322.296 396.369 322.498V323.644C396.369 323.845 396.532 324.009 396.734 324.009Z" fill="#3F3D56"/>
<path d="M390.484 324.009H392.88C393.081 324.009 393.245 323.845 393.245 323.644V322.498C393.245 322.296 393.081 322.133 392.88 322.133H390.484C390.283 322.133 390.12 322.296 390.12 322.498V323.644C390.12 323.845 390.283 324.009 390.484 324.009Z" fill="#3F3D56"/>
<path d="M384.234 324.009H386.631C386.832 324.009 386.995 323.845 386.995 323.644V322.498C386.995 322.296 386.832 322.133 386.631 322.133H384.234C384.033 322.133 383.87 322.296 383.87 322.498V323.644C383.87 323.845 384.033 324.009 384.234 324.009Z" fill="#3F3D56"/>
<path d="M377.985 324.009H380.381C380.582 324.009 380.745 323.845 380.745 323.644V322.498C380.745 322.296 380.582 322.133 380.381 322.133H377.985C377.784 322.133 377.621 322.296 377.621 322.498V323.644C377.621 323.845 377.784 324.009 377.985 324.009Z" fill="#3F3D56"/>
<path d="M371.735 324.009H374.132C374.333 324.009 374.496 323.845 374.496 323.644V322.498C374.496 322.296 374.333 322.133 374.132 322.133H371.735C371.534 322.133 371.371 322.296 371.371 322.498V323.644C371.371 323.845 371.534 324.009 371.735 324.009Z" fill="#3F3D56"/>
<path d="M465.553 327.134H467.949C468.15 327.134 468.313 326.971 468.313 326.769V325.623C468.313 325.422 468.15 325.259 467.949 325.259H465.553C465.352 325.259 465.188 325.422 465.188 325.623V326.769C465.188 326.971 465.352 327.134 465.553 327.134Z" fill="#3F3D56"/>
<path d="M459.303 327.134H461.7C461.901 327.134 462.064 326.971 462.064 326.769V325.623C462.064 325.422 461.901 325.259 461.7 325.259H459.303C459.102 325.259 458.939 325.422 458.939 325.623V326.769C458.939 326.971 459.102 327.134 459.303 327.134Z" fill="#3F3D56"/>
<path d="M453.054 327.134H455.45C455.651 327.134 455.814 326.971 455.814 326.769V325.623C455.814 325.422 455.651 325.259 455.45 325.259H453.054C452.852 325.259 452.689 325.422 452.689 325.623V326.769C452.689 326.971 452.852 327.134 453.054 327.134Z" fill="#3F3D56"/>
<path d="M446.804 327.134H449.2C449.402 327.134 449.565 326.971 449.565 326.769V325.623C449.565 325.422 449.402 325.259 449.2 325.259H446.804C446.603 325.259 446.44 325.422 446.44 325.623V326.769C446.44 326.971 446.603 327.134 446.804 327.134Z" fill="#3F3D56"/>
<path d="M440.554 327.134H442.951C443.152 327.134 443.315 326.971 443.315 326.769V325.623C443.315 325.422 443.152 325.259 442.951 325.259H440.554C440.353 325.259 440.19 325.422 440.19 325.623V326.769C440.19 326.971 440.353 327.134 440.554 327.134Z" fill="#3F3D56"/>
<path d="M434.305 327.134H436.701C436.902 327.134 437.065 326.971 437.065 326.769V325.623C437.065 325.422 436.902 325.259 436.701 325.259H434.305C434.104 325.259 433.941 325.422 433.941 325.623V326.769C433.941 326.971 434.104 327.134 434.305 327.134Z" fill="#3F3D56"/>
<path d="M428.055 327.134H430.452C430.653 327.134 430.816 326.971 430.816 326.769V325.623C430.816 325.422 430.653 325.259 430.452 325.259H428.055C427.854 325.259 427.691 325.422 427.691 325.623V326.769C427.691 326.971 427.854 327.134 428.055 327.134Z" fill="#3F3D56"/>
<path d="M421.806 327.134H424.202C424.403 327.134 424.566 326.971 424.566 326.769V325.623C424.566 325.422 424.403 325.259 424.202 325.259H421.806C421.605 325.259 421.441 325.422 421.441 325.623V326.769C421.441 326.971 421.605 327.134 421.806 327.134Z" fill="#3F3D56"/>
<path d="M415.556 327.134H417.952C418.154 327.134 418.317 326.971 418.317 326.769V325.623C418.317 325.422 418.154 325.259 417.952 325.259H415.556C415.355 325.259 415.192 325.422 415.192 325.623V326.769C415.192 326.971 415.355 327.134 415.556 327.134Z" fill="#3F3D56"/>
<path d="M409.307 327.134H411.703C411.904 327.134 412.067 326.971 412.067 326.769V325.623C412.067 325.422 411.904 325.259 411.703 325.259H409.307C409.105 325.259 408.942 325.422 408.942 325.623V326.769C408.942 326.971 409.105 327.134 409.307 327.134Z" fill="#3F3D56"/>
<path d="M403.057 327.134H405.453C405.654 327.134 405.818 326.971 405.818 326.769V325.623C405.818 325.422 405.654 325.259 405.453 325.259H403.057C402.856 325.259 402.693 325.422 402.693 325.623V326.769C402.693 326.971 402.856 327.134 403.057 327.134Z" fill="#3F3D56"/>
<path d="M396.807 327.134H399.204C399.405 327.134 399.568 326.971 399.568 326.769V325.623C399.568 325.422 399.405 325.259 399.204 325.259H396.807C396.606 325.259 396.443 325.422 396.443 325.623V326.769C396.443 326.971 396.606 327.134 396.807 327.134Z" fill="#3F3D56"/>
<path d="M390.558 327.134H392.954C393.155 327.134 393.318 326.971 393.318 326.769V325.623C393.318 325.422 393.155 325.259 392.954 325.259H390.558C390.357 325.259 390.194 325.422 390.194 325.623V326.769C390.194 326.971 390.357 327.134 390.558 327.134Z" fill="#3F3D56"/>
<path d="M384.308 327.134H386.705C386.906 327.134 387.069 326.971 387.069 326.769V325.623C387.069 325.422 386.906 325.259 386.705 325.259H384.308C384.107 325.259 383.944 325.422 383.944 325.623V326.769C383.944 326.971 384.107 327.134 384.308 327.134Z" fill="#3F3D56"/>
<path d="M378.059 327.134H380.455C380.656 327.134 380.819 326.971 380.819 326.769V325.623C380.819 325.422 380.656 325.259 380.455 325.259H378.059C377.858 325.259 377.694 325.422 377.694 325.623V326.769C377.694 326.971 377.858 327.134 378.059 327.134Z" fill="#3F3D56"/>
<path d="M371.809 327.134H374.206C374.407 327.134 374.57 326.971 374.57 326.769V325.623C374.57 325.422 374.407 325.259 374.206 325.259H371.809C371.608 325.259 371.445 325.422 371.445 325.623V326.769C371.445 326.971 371.608 327.134 371.809 327.134Z" fill="#3F3D56"/>
<path d="M413.681 330.884H437.951C438.152 330.884 438.315 330.721 438.315 330.52V329.373C438.315 329.172 438.152 329.009 437.951 329.009H413.681C413.48 329.009 413.317 329.172 413.317 329.373V330.52C413.317 330.721 413.48 330.884 413.681 330.884Z" fill="#3F3D56"/>
<path d="M387.968 267.678H385.847C385.203 267.678 384.682 268.199 384.682 268.843C384.682 269.486 385.203 270.007 385.847 270.007H387.968C388.611 270.007 389.133 269.486 389.133 268.843C389.133 268.199 388.611 267.678 387.968 267.678Z" fill="white"/>
<path d="M412.232 267.678H410.11C409.467 267.678 408.945 268.199 408.945 268.843C408.945 269.486 409.467 270.007 410.11 270.007H412.232C412.875 270.007 413.396 269.486 413.396 268.843C413.396 268.199 412.875 267.678 412.232 267.678Z" fill="white"/>
<path d="M419.106 267.678H416.985C416.342 267.678 415.82 268.199 415.82 268.843C415.82 269.486 416.342 270.007 416.985 270.007H419.106C419.749 270.007 420.271 269.486 420.271 268.843C420.271 268.199 419.749 267.678 419.106 267.678Z" fill="white"/>
<path d="M405.632 267.484H392.446C391.803 267.484 391.282 268.005 391.282 268.648C391.282 269.292 391.803 269.813 392.446 269.813H405.632C406.275 269.813 406.796 269.292 406.796 268.648C406.796 268.005 406.275 267.484 405.632 267.484Z" fill="white"/>
<path d="M437.983 267.484H424.798C424.154 267.484 423.633 268.005 423.633 268.648C423.633 269.292 424.154 269.813 424.798 269.813H437.983C438.626 269.813 439.148 269.292 439.148 268.648C439.148 268.005 438.626 267.484 437.983 267.484Z" fill="white"/>
<path d="M394.438 272.936H392.317C391.674 272.936 391.152 273.457 391.152 274.101C391.152 274.744 391.674 275.265 392.317 275.265H394.438C395.082 275.265 395.603 274.744 395.603 274.101C395.603 273.457 395.082 272.936 394.438 272.936Z" fill="white"/>
<path d="M418.702 272.936H416.58C415.937 272.936 415.416 273.457 415.416 274.101C415.416 274.744 415.937 275.265 416.58 275.265H418.702C419.345 275.265 419.867 274.744 419.867 274.101C419.867 273.457 419.345 272.936 418.702 272.936Z" fill="white"/>
<path d="M425.577 272.936H423.455C422.812 272.936 422.29 273.457 422.29 274.101C422.29 274.744 422.812 275.265 423.455 275.265H425.577C426.22 275.265 426.741 274.744 426.741 274.101C426.741 273.457 426.22 272.936 425.577 272.936Z" fill="white"/>
<path d="M412.102 272.742H398.917C398.273 272.742 397.752 273.263 397.752 273.907C397.752 274.55 398.273 275.071 398.917 275.071H412.102C412.745 275.071 413.267 274.55 413.267 273.907C413.267 273.263 412.745 272.742 412.102 272.742Z" fill="white"/>
<path d="M444.453 272.742H431.268C430.625 272.742 430.103 273.263 430.103 273.907C430.103 274.55 430.625 275.071 431.268 275.071H444.453C445.097 275.071 445.618 274.55 445.618 273.907C445.618 273.263 445.097 272.742 444.453 272.742Z" fill="white"/>
<path d="M400.909 278.194H398.787C398.144 278.194 397.622 278.715 397.622 279.359C397.622 280.002 398.144 280.524 398.787 280.524H400.909C401.552 280.524 402.073 280.002 402.073 279.359C402.073 278.715 401.552 278.194 400.909 278.194Z" fill="white"/>
<path d="M425.172 278.194H423.051C422.407 278.194 421.886 278.715 421.886 279.359C421.886 280.002 422.407 280.524 423.051 280.524H425.172C425.815 280.524 426.337 280.002 426.337 279.359C426.337 278.715 425.815 278.194 425.172 278.194Z" fill="white"/>
<path d="M432.047 278.194H429.925C429.282 278.194 428.761 278.715 428.761 279.359C428.761 280.002 429.282 280.524 429.925 280.524H432.047C432.69 280.524 433.211 280.002 433.211 279.359C433.211 278.715 432.69 278.194 432.047 278.194Z" fill="white"/>
<path d="M418.572 278H405.387C404.744 278 404.222 278.521 404.222 279.164C404.222 279.808 404.744 280.329 405.387 280.329H418.572C419.216 280.329 419.737 279.808 419.737 279.164C419.737 278.521 419.216 278 418.572 278Z" fill="white"/>
<path d="M450.924 278H437.738C437.095 278 436.574 278.521 436.574 279.164C436.574 279.808 437.095 280.329 437.738 280.329H450.924C451.567 280.329 452.088 279.808 452.088 279.164C452.088 278.521 451.567 278 450.924 278Z" fill="white"/>
<path d="M407.379 283.452H405.257C404.614 283.452 404.093 283.973 404.093 284.617C404.093 285.26 404.614 285.782 405.257 285.782H407.379C408.022 285.782 408.543 285.26 408.543 284.617C408.543 283.973 408.022 283.452 407.379 283.452Z" fill="white"/>
<path d="M431.642 283.452H429.521C428.878 283.452 428.356 283.973 428.356 284.617C428.356 285.26 428.878 285.782 429.521 285.782H431.642C432.286 285.782 432.807 285.26 432.807 284.617C432.807 283.973 432.286 283.452 431.642 283.452Z" fill="white"/>
<path d="M438.517 283.452H436.396C435.752 283.452 435.231 283.973 435.231 284.617C435.231 285.26 435.752 285.782 436.396 285.782H438.517C439.16 285.782 439.682 285.26 439.682 284.617C439.682 283.973 439.16 283.452 438.517 283.452Z" fill="white"/>
<path d="M425.043 283.258H411.857C411.214 283.258 410.693 283.779 410.693 284.422C410.693 285.066 411.214 285.587 411.857 285.587H425.043C425.686 285.587 426.207 285.066 426.207 284.422C426.207 283.779 425.686 283.258 425.043 283.258Z" fill="white"/>
<path d="M412.232 304.36H410.11C409.467 304.36 408.945 304.881 408.945 305.525C408.945 306.168 409.467 306.69 410.11 306.69H412.232C412.875 306.69 413.396 306.168 413.396 305.525C413.396 304.881 412.875 304.36 412.232 304.36Z" fill="white"/>
<path d="M419.106 304.36H416.985C416.342 304.36 415.82 304.881 415.82 305.525C415.82 306.168 416.342 306.69 416.985 306.69H419.106C419.749 306.69 420.271 306.168 420.271 305.525C420.271 304.881 419.749 304.36 419.106 304.36Z" fill="white"/>
<path d="M437.983 304.554H424.798C424.154 304.554 423.633 305.075 423.633 305.719C423.633 306.362 424.154 306.884 424.798 306.884H437.983C438.626 306.884 439.148 306.362 439.148 305.719C439.148 305.075 438.626 304.554 437.983 304.554Z" fill="white"/>
<path d="M387.968 304.36H385.847C385.203 304.36 384.682 304.881 384.682 305.525C384.682 306.168 385.203 306.69 385.847 306.69H387.968C388.611 306.69 389.133 306.168 389.133 305.525C389.133 304.881 388.611 304.36 387.968 304.36Z" fill="white"/>
<path d="M405.632 304.554H392.446C391.803 304.554 391.282 305.075 391.282 305.719C391.282 306.362 391.803 306.884 392.446 306.884H405.632C406.275 306.884 406.796 306.362 406.796 305.719C406.796 305.075 406.275 304.554 405.632 304.554Z" fill="white"/>
<path d="M394.438 299.102H392.317C391.674 299.102 391.152 299.623 391.152 300.267C391.152 300.91 391.674 301.431 392.317 301.431H394.438C395.082 301.431 395.603 300.91 395.603 300.267C395.603 299.623 395.082 299.102 394.438 299.102Z" fill="white"/>
<path d="M418.702 299.102H416.58C415.937 299.102 415.416 299.623 415.416 300.267C415.416 300.91 415.937 301.431 416.58 301.431H418.702C419.345 301.431 419.867 300.91 419.867 300.267C419.867 299.623 419.345 299.102 418.702 299.102Z" fill="white"/>
<path d="M425.577 299.102H423.455C422.812 299.102 422.29 299.623 422.29 300.267C422.29 300.91 422.812 301.431 423.455 301.431H425.577C426.22 301.431 426.741 300.91 426.741 300.267C426.741 299.623 426.22 299.102 425.577 299.102Z" fill="white"/>
<path d="M412.102 299.296H398.917C398.273 299.296 397.752 299.817 397.752 300.461C397.752 301.104 398.273 301.626 398.917 301.626H412.102C412.745 301.626 413.267 301.104 413.267 300.461C413.267 299.817 412.745 299.296 412.102 299.296Z" fill="white"/>
<path d="M400.909 293.844H398.787C398.144 293.844 397.622 294.365 397.622 295.009C397.622 295.652 398.144 296.173 398.787 296.173H400.909C401.552 296.173 402.073 295.652 402.073 295.009C402.073 294.365 401.552 293.844 400.909 293.844Z" fill="white"/>
<path d="M425.172 293.844H423.051C422.407 293.844 421.886 294.365 421.886 295.009C421.886 295.652 422.407 296.173 423.051 296.173H425.172C425.815 296.173 426.337 295.652 426.337 295.009C426.337 294.365 425.815 293.844 425.172 293.844Z" fill="white"/>
<path d="M432.047 293.844H429.925C429.282 293.844 428.761 294.365 428.761 295.009C428.761 295.652 429.282 296.173 429.925 296.173H432.047C432.69 296.173 433.211 295.652 433.211 295.009C433.211 294.365 432.69 293.844 432.047 293.844Z" fill="white"/>
<path d="M418.572 294.038H405.387C404.744 294.038 404.222 294.56 404.222 295.203C404.222 295.846 404.744 296.368 405.387 296.368H418.572C419.216 296.368 419.737 295.846 419.737 295.203C419.737 294.56 419.216 294.038 418.572 294.038Z" fill="white"/>
<path d="M407.379 288.586H405.257C404.614 288.586 404.093 289.107 404.093 289.751C404.093 290.394 404.614 290.916 405.257 290.916H407.379C408.022 290.916 408.543 290.394 408.543 289.751C408.543 289.107 408.022 288.586 407.379 288.586Z" fill="white"/>
<path d="M431.642 288.586H429.521C428.878 288.586 428.356 289.107 428.356 289.751C428.356 290.394 428.878 290.916 429.521 290.916H431.642C432.286 290.916 432.807 290.394 432.807 289.751C432.807 289.107 432.286 288.586 431.642 288.586Z" fill="white"/>
<path d="M438.517 288.586H436.396C435.752 288.586 435.231 289.107 435.231 289.751C435.231 290.394 435.752 290.916 436.396 290.916H438.517C439.16 290.916 439.682 290.394 439.682 289.751C439.682 289.107 439.16 288.586 438.517 288.586Z" fill="white"/>
<path d="M425.043 288.78H411.857C411.214 288.78 410.693 289.302 410.693 289.945C410.693 290.588 411.214 291.11 411.857 291.11H425.043C425.686 291.11 426.207 290.588 426.207 289.945C426.207 289.302 425.686 288.78 425.043 288.78Z" fill="white"/>
<path d="M376.689 365.981L366.73 350.236L397.99 325.312L410.893 311.014C412.57 309.157 414.704 307.772 417.083 306.998C419.462 306.224 422.003 306.088 424.451 306.604C426.899 307.12 429.169 308.269 431.034 309.937C432.899 311.605 434.294 313.733 435.078 316.109C436.242 319.63 435.991 323.465 434.381 326.805C432.77 330.145 429.926 332.729 426.447 334.01L406.043 341.528L376.689 365.981Z" fill="#FFB6B6"/>
<path d="M143.009 251.817V328.344H196.612V251.817C196.613 251.267 196.437 250.731 196.111 250.287C195.784 249.844 195.325 249.517 194.799 249.355C194.551 249.273 194.291 249.233 194.03 249.235H145.597C145.258 249.235 144.922 249.301 144.608 249.431C144.294 249.56 144.008 249.75 143.768 249.99C143.528 250.23 143.337 250.514 143.206 250.828C143.076 251.141 143.009 251.478 143.009 251.817ZM163.928 278.112C163.942 276.603 164.551 275.161 165.622 274.099C166.694 273.038 168.141 272.442 169.65 272.442C171.158 272.442 172.606 273.038 173.677 274.099C174.749 275.161 175.358 276.603 175.372 278.112V286.992C175.364 288.504 174.758 289.953 173.686 291.02C172.613 292.087 171.162 292.685 169.65 292.685C168.137 292.685 166.686 292.087 165.614 291.02C164.542 289.953 163.935 288.504 163.928 286.992V278.112Z" fill="#2F2E41"/>
<path d="M142.845 325.897V333.276C142.846 333.659 142.998 334.025 143.267 334.296C143.537 334.567 143.902 334.721 144.284 334.724H195.336C195.719 334.722 196.085 334.569 196.355 334.297C196.624 334.026 196.776 333.659 196.776 333.276V325.897H142.845Z" fill="#3F3D56"/>
<path d="M58.6836 136.519V276.247C58.685 278.027 59.3928 279.735 60.6517 280.994C61.9106 282.253 63.6176 282.961 65.3979 282.962H272.424C274.205 282.961 275.912 282.253 277.171 280.994C278.429 279.735 279.137 278.027 279.139 276.247V136.519C279.134 134.74 278.425 133.035 277.167 131.778C275.908 130.521 274.203 129.814 272.424 129.811H65.3979C63.6192 129.814 61.9138 130.521 60.6553 131.778C59.3968 133.035 58.6878 134.74 58.6836 136.519Z" fill="#3F3D56"/>
<path d="M63.5403 138.258V274.523C63.542 275.474 63.9205 276.386 64.5931 277.059C65.2658 277.732 66.1776 278.11 67.1288 278.112H270.701C271.652 278.11 272.564 277.732 273.237 277.059C273.909 276.386 274.288 275.474 274.289 274.523V138.258C274.289 137.305 273.912 136.392 273.239 135.718C272.566 135.043 271.653 134.663 270.701 134.661H67.1288C66.1764 134.663 65.2637 135.043 64.591 135.718C63.9183 136.392 63.5404 137.305 63.5403 138.258Z" fill="white"/>
<path d="M101.32 334.224C101.527 334.484 101.79 334.693 102.09 334.837C102.39 334.98 102.718 335.054 103.051 335.052H224.163C224.494 335.052 224.821 334.978 225.12 334.835C225.419 334.692 225.682 334.485 225.891 334.227C226.1 333.97 226.248 333.67 226.326 333.348C226.404 333.026 226.409 332.69 226.341 332.366L224.461 323.434C224.383 323.07 224.216 322.731 223.973 322.448C223.731 322.166 223.422 321.948 223.074 321.815C222.822 321.716 222.554 321.666 222.283 321.666H104.923C104.653 321.666 104.384 321.716 104.132 321.815C103.784 321.948 103.475 322.166 103.233 322.448C102.99 322.731 102.823 323.07 102.745 323.434L100.865 332.366C100.798 332.69 100.804 333.025 100.883 333.346C100.961 333.668 101.111 333.968 101.32 334.224Z" fill="#2F2E41"/>
<path d="M264.094 153.432H73.6127C73.4147 153.428 73.2263 153.346 73.0879 153.205C72.9494 153.063 72.8719 152.873 72.8719 152.675C72.8719 152.477 72.9494 152.287 73.0879 152.145C73.2263 152.003 73.4147 151.922 73.6127 151.917H264.094C264.292 151.922 264.481 152.003 264.619 152.145C264.758 152.287 264.835 152.477 264.835 152.675C264.835 152.873 264.758 153.063 264.619 153.205C264.481 153.346 264.292 153.428 264.094 153.432Z" fill="#3F3D56"/>
<path d="M86.579 148.049C89.0308 148.049 91.0183 146.017 91.0183 143.51C91.0183 141.003 89.0308 138.971 86.579 138.971C84.1273 138.971 82.1398 141.003 82.1398 143.51C82.1398 146.017 84.1273 148.049 86.579 148.049Z" fill="#3F3D56"/>
<path d="M101.915 148.049C104.366 148.049 106.354 146.017 106.354 143.51C106.354 141.003 104.366 138.971 101.915 138.971C99.4629 138.971 97.4754 141.003 97.4754 143.51C97.4754 146.017 99.4629 148.049 101.915 148.049Z" fill="#3F3D56"/>
<path d="M117.25 148.049C119.702 148.049 121.69 146.017 121.69 143.51C121.69 141.003 119.702 138.971 117.25 138.971C114.799 138.971 112.811 141.003 112.811 143.51C112.811 146.017 114.799 148.049 117.25 148.049Z" fill="#3F3D56"/>
<path d="M254.86 140.094H243.968C243.752 140.099 243.547 140.188 243.397 140.342C243.246 140.496 243.162 140.703 243.162 140.918C243.162 141.133 243.246 141.34 243.397 141.494C243.547 141.648 243.752 141.738 243.968 141.743H254.86C255.076 141.739 255.283 141.651 255.435 141.497C255.587 141.343 255.673 141.135 255.673 140.918C255.673 140.701 255.587 140.493 255.435 140.339C255.283 140.185 255.076 140.097 254.86 140.094Z" fill="#3F3D56"/>
<path d="M254.86 143.19H243.968C243.752 143.195 243.547 143.284 243.396 143.438C243.246 143.592 243.161 143.799 243.161 144.015C243.161 144.23 243.246 144.437 243.396 144.591C243.547 144.745 243.752 144.834 243.968 144.839H254.86C255.077 144.837 255.284 144.749 255.436 144.594C255.589 144.44 255.674 144.232 255.674 144.015C255.674 143.798 255.589 143.59 255.436 143.435C255.284 143.281 255.077 143.193 254.86 143.19Z" fill="#3F3D56"/>
<path d="M254.86 146.287H243.968C243.752 146.292 243.547 146.381 243.397 146.535C243.246 146.689 243.162 146.896 243.162 147.111C243.162 147.327 243.246 147.534 243.397 147.688C243.547 147.842 243.752 147.931 243.968 147.936H254.86C255.076 147.933 255.283 147.844 255.435 147.69C255.587 147.536 255.673 147.328 255.673 147.111C255.673 146.895 255.587 146.687 255.435 146.532C255.283 146.378 255.076 146.29 254.86 146.287Z" fill="#3F3D56"/>
<path d="M517.451 329.135C517.78 330.092 518.403 330.921 519.232 331.501C520.061 332.082 521.052 332.385 522.064 332.367L541.828 331.858C542.847 331.838 543.832 331.489 544.636 330.863C545.441 330.236 546.021 329.367 546.29 328.383L549.087 298.472C550.079 298.921 551.159 299.143 552.248 299.121C553.194 299.098 554.127 298.888 554.992 298.504C555.857 298.119 556.638 297.569 557.29 296.883C557.943 296.197 558.453 295.389 558.794 294.505C559.134 293.622 559.297 292.68 559.273 291.734C559.249 290.787 559.039 289.855 558.655 288.99C558.271 288.124 557.72 287.343 557.034 286.691C556.349 286.038 555.541 285.527 554.658 285.187C553.774 284.847 552.833 284.684 551.886 284.708C551.451 284.706 551.017 284.752 550.591 284.843C550.128 284.342 549.565 283.943 548.939 283.673C548.313 283.403 547.637 283.267 546.955 283.273L516.553 284.059C516.301 284.068 516.05 284.099 515.803 284.152C515.137 284.276 514.504 284.542 513.949 284.931C513.394 285.32 512.928 285.824 512.584 286.408C512.239 286.993 512.024 287.644 511.952 288.318C511.88 288.993 511.954 289.675 512.168 290.319L517.451 329.135ZM549.66 296.441L551.65 289.313C551.877 288.489 551.882 287.621 551.665 286.795C551.762 286.794 551.847 286.749 551.944 286.748C553.308 286.72 554.628 287.234 555.615 288.178C556.601 289.122 557.172 290.418 557.204 291.783C557.236 293.148 556.726 294.469 555.785 295.458C554.844 296.447 553.55 297.023 552.185 297.058C551.303 297.086 550.43 296.872 549.66 296.441Z" fill="#2F2E41"/>
<path d="M515.803 284.152C516.451 287.856 523.733 290.46 532.489 290.007C540.541 289.636 547.125 286.808 548.331 283.457C547.884 283.325 547.42 283.263 546.955 283.274L516.553 284.059C516.301 284.068 516.05 284.099 515.803 284.152Z" fill="#3F3D56"/>
<path d="M534.094 312.699C534.134 312.689 534.172 312.672 534.207 312.649L538.499 309.839C538.551 309.805 538.593 309.759 538.623 309.705C538.652 309.65 538.668 309.589 538.668 309.527C538.668 309.465 538.652 309.404 538.623 309.35C538.593 309.296 538.551 309.249 538.499 309.215L534.038 306.293C533.997 306.266 533.951 306.247 533.903 306.238C533.855 306.228 533.805 306.229 533.757 306.239C533.709 306.248 533.663 306.268 533.623 306.295C533.582 306.323 533.547 306.358 533.52 306.399C533.493 306.44 533.475 306.486 533.466 306.535C533.457 306.583 533.457 306.633 533.467 306.681C533.477 306.729 533.497 306.774 533.525 306.815C533.552 306.855 533.588 306.89 533.629 306.917L537.614 309.527L533.798 312.025C533.724 312.073 533.67 312.146 533.645 312.231C533.62 312.315 533.625 312.406 533.661 312.487C533.696 312.568 533.759 312.633 533.839 312.672C533.918 312.711 534.008 312.72 534.094 312.699Z" fill="#6C63FF"/>
<path d="M527.315 313.011C527.387 312.993 527.452 312.954 527.501 312.898C527.551 312.843 527.583 312.774 527.593 312.7C527.603 312.627 527.591 312.552 527.558 312.485C527.525 312.418 527.473 312.363 527.409 312.326L523.453 310.057L527.277 307.217C527.316 307.187 527.349 307.151 527.374 307.109C527.399 307.067 527.416 307.02 527.423 306.972C527.43 306.923 527.428 306.874 527.416 306.826C527.404 306.779 527.383 306.734 527.354 306.695C527.324 306.656 527.288 306.622 527.246 306.597C527.204 306.572 527.157 306.556 527.109 306.548C527.06 306.541 527.011 306.544 526.963 306.556C526.916 306.568 526.871 306.589 526.832 306.618L522.551 309.799C522.501 309.836 522.461 309.884 522.435 309.94C522.409 309.996 522.397 310.058 522.401 310.12C522.404 310.182 522.423 310.242 522.456 310.294C522.489 310.347 522.534 310.391 522.587 310.422L527.038 312.973C527.122 313.021 527.221 313.035 527.315 313.011Z" fill="#6C63FF"/>
<path d="M533.667 315.161C533.703 315.152 533.738 315.137 533.769 315.118C533.811 315.092 533.848 315.059 533.877 315.019C533.906 314.98 533.926 314.935 533.938 314.887C533.95 314.84 533.952 314.79 533.944 314.742C533.937 314.693 533.92 314.647 533.894 314.605L527.81 304.6C527.758 304.516 527.675 304.455 527.579 304.432C527.483 304.409 527.382 304.425 527.297 304.476C527.213 304.528 527.152 304.61 527.129 304.707C527.106 304.803 527.121 304.904 527.173 304.989L533.257 314.993C533.298 315.061 533.361 315.114 533.434 315.145C533.508 315.175 533.59 315.18 533.667 315.161Z" fill="#6C63FF"/>
<path d="M191.613 194.621H158.645C157.3 194.621 156.209 195.711 156.209 197.056V200.278C156.209 201.623 157.3 202.713 158.645 202.713H191.613C192.958 202.713 194.048 201.623 194.048 200.278V197.056C194.048 195.711 192.958 194.621 191.613 194.621Z" fill="url(#paint3_linear_87_129)"/>
<path d="M210.83 210.806H139.428C138.083 210.806 136.993 211.897 136.993 213.242V216.463C136.993 217.808 138.083 218.899 139.428 218.899H210.83C212.175 218.899 213.265 217.808 213.265 216.463V213.242C213.265 211.897 212.175 210.806 210.83 210.806Z" fill="#E6E6E6"/>
<path d="M210.83 226.991H139.428C138.083 226.991 136.993 228.082 136.993 229.427V232.649C136.993 233.994 138.083 235.084 139.428 235.084H210.83C212.175 235.084 213.265 233.994 213.265 232.649V229.427C213.265 228.082 212.175 226.991 210.83 226.991Z" fill="#E6E6E6"/>
<path d="M216.883 281.19L217.044 281.701L217.053 281.718L221.921 296.52L227.521 313.578L238.057 345.635L238.159 350.614V350.631L238.942 390.689L236.772 396.119L239.214 405.023C239.214 405.023 238.091 391.564 232.065 399.293C228.653 403.686 224.661 408.18 221.385 412.393C226.159 414.326 231.01 416.073 235.938 417.637C237.002 417.977 238.074 418.301 239.146 418.624C239.376 418.692 239.606 418.76 239.836 418.828C256.17 423.66 273.057 426.375 290.082 426.906C290.967 426.932 291.835 426.949 292.678 426.966C292.976 426.974 293.265 426.983 293.554 426.983C294.508 426.991 295.452 427 296.405 427C298.329 427 300.244 426.972 302.15 426.915C316.26 426.517 330.288 424.62 343.997 421.254C343.903 415.594 343.648 408.98 343.282 401.915C343.112 398.451 339.29 394.697 339.061 391.071C338.899 388.347 342.329 385.785 342.15 383.018C340.992 365.986 339.546 372.524 338.473 360.463C338.363 359.279 338.26 358.147 338.167 357.066C337.478 349.32 337.001 344.477 337.001 344.477L341.58 315.613L348.771 270.295L348.218 269.384L347.597 269.077L309.665 250.3L307.605 245.022C307.005 243.502 305.964 242.196 304.616 241.272C303.268 240.348 301.674 239.849 300.039 239.839L275.052 239.736C273.756 239.731 272.476 240.034 271.32 240.622C270.164 241.209 269.165 242.064 268.406 243.116L261.64 252.487L216.883 281.19Z" fill="#3F3D56"/>
<path d="M243.819 338.502L238.159 350.614L234.295 358.888L227.648 393.694L224.321 397.226L221.47 384.721L191.63 391.347C190.651 385.908 191.368 391.531 190.764 385.565C190.934 385.394 191.112 385.224 191.291 385.054C191.768 384.611 192.168 384.194 192.159 383.794C191.819 363.212 192.84 328.185 201.368 306.965C202.703 303.5 204.464 300.214 206.61 297.184C206.78 296.954 206.942 296.724 207.104 296.495C211.036 290.987 213.521 285.565 217.044 281.709V281.701C217.066 281.683 217.086 281.663 217.104 281.641C217.117 281.635 217.128 281.626 217.138 281.616L241.342 268.78L242.38 297.959L243.121 318.932L243.819 338.502Z" fill="#3F3D56"/>
<path d="M331.094 341.942L338.164 357.07L340.631 362.339L347.276 397.141L350.593 400.665L353.45 388.163L354.793 387.888L379.008 382.872L386.066 405.291C387.657 402.64 388.284 399.521 387.84 396.461C387.397 393.401 385.911 390.589 383.633 388.498C383.151 388.062 382.75 387.637 382.761 387.236C383.163 363.028 381.682 318.824 368.312 300.631C364.066 294.857 361.518 289.107 357.811 285.089C357.8 285.078 357.8 285.066 357.788 285.066L348.768 270.294L348.217 269.387L347.597 269.077L331.094 341.942Z" fill="#3F3D56"/>
<path d="M288.268 232.624C306.627 232.624 321.51 217.739 321.51 199.376C321.51 181.014 306.627 166.128 288.268 166.128C269.908 166.128 255.025 181.014 255.025 199.376C255.025 217.739 269.908 232.624 288.268 232.624Z" fill="#FFB6B6"/>
<path d="M333.199 176.153C332.941 175.877 332.63 175.657 332.286 175.504C331.941 175.352 331.569 175.27 331.192 175.265L331.692 173.877C331.855 173.44 331.899 172.967 331.819 172.507C331.74 172.048 331.539 171.617 331.239 171.26C330.938 170.904 330.548 170.633 330.108 170.477C329.669 170.32 329.196 170.283 328.737 170.37L326.917 170.721L327.088 169.504C327.154 169.051 327.101 168.589 326.934 168.163C326.767 167.737 326.492 167.361 326.136 167.074C325.78 166.786 325.355 166.596 324.903 166.523C324.452 166.449 323.989 166.494 323.56 166.654C323.17 166.808 322.75 166.872 322.332 166.842C321.913 166.813 321.507 166.69 321.142 166.482C320.776 166.282 320.459 166.003 320.211 165.667C319.964 165.331 319.793 164.944 319.71 164.535L319.076 161.476L319.009 161.311C315.92 156.163 309.982 152.417 302.715 151.044C296.247 149.813 289.615 150.44 283.221 151.029C280.685 151.268 277.82 151.537 275.433 152.999C273.403 154.253 271.687 156.76 272.038 159.289C265.734 157.357 258.975 161.214 255.625 166.079C251.656 171.87 251.007 179.122 250.903 184.793C250.619 198.209 253.387 209.186 259.109 217.423C259.527 218.02 259.631 219.266 260.46 219.684L260.288 219.408C261.213 219.871 262.153 220.617 261.802 221.415C260.795 223.713 267.487 228.795 272.202 230.474C280.804 233.54 292.241 233.279 300.283 232.175L300.567 230.272C303.469 229.877 305.513 229.123 306.087 227.944C307.102 227.079 307.967 226.303 308.721 225.586L308.728 225.579C308.743 225.564 308.773 225.542 308.788 225.527C312.421 222.042 313.264 220.057 313.645 217.035C314.01 214.073 313.361 211.066 312.697 208.357C326.678 210.521 307.192 193.464 320.217 190.166C320.367 190.12 320.519 190.082 320.672 190.054C321.053 189.964 321.433 189.875 321.799 189.77C323.561 189.292 325.248 188.571 326.812 187.629C330.453 185.413 331.654 182.473 333.534 179.16C333.806 178.688 333.919 178.142 333.859 177.601C333.799 177.06 333.567 176.553 333.199 176.153Z" fill="#2F2E41"/>
<path d="M405.841 344.309C405.833 345.615 405.818 347.443 405.759 349.704C405.751 350.017 405.744 350.338 405.736 350.666C405.639 354.822 405.542 358.307 405.385 362.18C405.378 362.448 405.371 362.709 405.356 362.978C405.147 368.38 404.818 374.67 404.251 384.632C403.2 403.032 401.364 387.161 399.522 393.616C399.432 393.936 399.335 394.317 399.246 394.765C398.967 396.389 398.496 397.975 397.843 399.488C396.866 400.07 395.859 400.63 394.866 401.189C392.039 402.764 389.167 404.278 386.272 405.718C384.646 406.524 383.012 407.315 381.37 408.076C381.109 408.196 380.856 408.315 380.602 408.427C372.197 412.315 363.535 415.621 354.677 418.321C352.946 418.844 351.223 419.351 349.477 419.821C347.657 420.328 345.837 420.806 343.994 421.254C330.285 424.62 316.258 426.518 302.148 426.917C300.246 426.977 298.329 426.999 296.404 426.999C295.449 426.999 294.509 426.992 293.554 426.984C293.263 426.984 292.972 426.977 292.681 426.969C291.838 426.947 290.965 426.932 290.085 426.91C273.059 426.378 256.173 423.663 239.839 418.829L239.145 418.627C238.071 418.299 237.004 417.978 235.937 417.635C231.013 416.075 226.162 414.329 221.382 412.397C217.734 410.927 214.128 409.35 210.564 407.666C210.532 407.657 210.501 407.642 210.475 407.621C209.729 407.278 208.975 406.92 208.229 406.554C208.132 406.502 208.028 406.45 207.923 406.397C205.141 405.039 202.388 403.617 199.665 402.129C197.374 396.869 194.151 395.862 192.152 391.235C191.57 389.861 191.15 388.424 190.899 386.952C190.899 386.937 190.891 386.922 190.891 386.9C191.1 389.676 190.003 381.975 190.884 386.87C190.876 386.781 190.869 386.684 190.861 386.572C190.839 386.303 190.809 385.975 190.764 385.564C188.206 360.575 188.37 331.997 187.258 308.448C187.183 306.926 187.106 305.468 187.027 304.076C187.004 303.613 186.975 303.158 186.945 302.71C186.997 302.576 187.057 302.434 187.124 302.3C187.138 302.261 187.155 302.224 187.176 302.188C187.198 302.141 187.223 302.097 187.251 302.053C187.265 302.031 187.288 302.001 187.303 301.979C187.314 301.953 187.326 301.928 187.34 301.904C187.407 301.8 187.482 301.688 187.564 301.583C187.601 301.539 187.631 301.501 187.668 301.464C187.694 301.426 187.724 301.391 187.758 301.36C187.781 301.324 187.808 301.291 187.84 301.263C187.87 301.233 187.9 301.195 187.937 301.158C187.953 301.135 187.973 301.114 187.997 301.098C188.056 301.031 188.121 300.968 188.191 300.912C188.457 300.667 188.741 300.442 189.041 300.24C189.145 300.173 189.257 300.106 189.362 300.031C190.114 299.582 190.905 299.202 191.727 298.897C192.01 298.793 192.294 298.696 192.6 298.591C192.712 298.561 192.816 298.524 192.928 298.487C193.092 298.435 193.256 298.382 193.428 298.345C194.278 298.091 195.196 297.875 196.188 297.673C196.307 297.651 196.434 297.629 196.561 297.599C196.74 297.562 196.927 297.532 197.113 297.502C197.367 297.457 197.628 297.412 197.889 297.368C200.105 297.017 202.619 296.756 205.394 296.584C205.655 296.569 205.917 296.554 206.178 296.539C206.484 296.524 206.789 296.509 207.103 296.495C207.364 296.48 207.632 296.472 207.901 296.465C208.162 296.45 208.431 296.442 208.707 296.435C209.46 296.412 210.236 296.39 211.027 296.375C213.28 296.33 215.652 296.345 218.144 296.398C219.3 296.427 220.479 296.457 221.688 296.509C221.77 296.509 221.844 296.517 221.919 296.517C222.971 296.554 224.03 296.599 225.12 296.659C225.881 296.696 226.649 296.733 227.417 296.778C228.141 296.823 228.872 296.868 229.611 296.92C230.185 296.95 230.76 296.994 231.342 297.032C231.834 297.069 232.326 297.106 232.819 297.136L233.49 297.181C233.856 297.211 234.221 297.233 234.594 297.271C235.415 297.338 236.236 297.405 237.071 297.472C237.899 297.547 238.742 297.621 239.585 297.696C240.428 297.77 241.279 297.853 242.129 297.935C242.219 297.942 242.301 297.95 242.383 297.957C243.159 298.039 243.935 298.114 244.718 298.196C244.897 298.211 245.084 298.226 245.263 298.248C246.01 298.323 246.771 298.411 247.525 298.491C247.756 298.516 247.986 298.54 248.218 298.566C248.808 298.63 249.391 298.686 249.985 298.755C250.768 298.845 251.567 298.927 252.343 299.031C252.947 299.099 253.551 299.166 254.155 299.24C255.103 299.352 256.065 299.472 257.028 299.599C257.393 299.643 257.759 299.688 258.124 299.74C260.87 300.084 263.645 300.464 266.465 300.86C270.74 301.464 275.082 302.121 279.454 302.829C283.833 303.538 288.237 304.287 292.666 305.075C293.785 305.277 294.904 305.478 296.031 305.687C296.538 305.784 297.045 305.881 297.553 305.978C298.418 306.135 299.283 306.299 300.149 306.463C301.014 306.627 301.88 306.792 302.745 306.963C303.775 307.165 304.812 307.366 305.841 307.568C312.623 308.911 319.367 310.343 325.947 311.843C327.029 312.089 328.11 312.343 329.185 312.589C331.333 313.089 333.462 313.597 335.571 314.111C336.153 314.246 336.727 314.388 337.302 314.529C338.734 314.888 340.167 315.246 341.577 315.611L341.823 315.678C342.86 315.932 343.874 316.193 344.889 316.462C347.284 317.089 349.639 317.723 351.954 318.365C353.491 318.79 355.01 319.22 356.512 319.656C358.758 320.305 360.959 320.961 363.1 321.625C363.629 321.79 364.159 321.954 364.681 322.11C366.248 322.595 367.792 323.088 369.292 323.58C370.486 323.968 371.649 324.364 372.798 324.759C373.947 325.155 375.074 325.55 376.178 325.946C376.887 326.199 377.588 326.468 378.289 326.722C379.296 327.095 380.289 327.468 381.258 327.841C381.557 327.953 381.848 328.072 382.139 328.184C382.325 328.266 382.504 328.333 382.683 328.408C383.034 328.55 383.392 328.684 383.735 328.826C384.086 328.96 384.429 329.102 384.772 329.251C385.108 329.386 385.451 329.527 385.779 329.669C386.115 329.803 386.443 329.945 386.772 330.094C387.048 330.206 387.316 330.326 387.577 330.445C388.107 330.676 388.637 330.908 389.152 331.147C389.405 331.266 389.659 331.378 389.913 331.497L390.494 331.766C390.577 331.811 390.659 331.848 390.741 331.885C390.927 331.975 391.121 332.072 391.308 332.161C391.74 332.363 392.166 332.579 392.583 332.781C393.143 333.064 393.687 333.348 394.21 333.624C394.739 333.907 395.254 334.191 395.747 334.467C395.829 334.512 395.903 334.556 395.985 334.601C396.097 334.661 396.209 334.728 396.321 334.788C396.702 335.004 397.067 335.228 397.433 335.444C398.149 335.885 398.828 336.317 399.462 336.75C399.604 336.847 399.738 336.944 399.88 337.034C400.35 337.369 400.797 337.698 401.215 338.034C401.215 338.041 401.215 338.041 401.223 338.041C401.364 338.146 401.499 338.257 401.633 338.362C401.745 338.466 401.864 338.556 401.976 338.66C402.364 338.996 402.722 339.317 403.05 339.645C403.16 339.747 403.265 339.854 403.364 339.966C403.407 340.002 403.447 340.042 403.483 340.086C403.632 340.235 403.766 340.384 403.893 340.533C403.913 340.554 403.931 340.576 403.946 340.6C404.125 340.809 404.289 341.018 404.445 341.227C404.52 341.332 404.602 341.436 404.669 341.541C404.759 341.667 404.848 341.802 404.923 341.929C404.99 342.033 405.05 342.145 405.109 342.249C405.268 342.518 405.403 342.8 405.512 343.093C405.596 343.291 405.663 343.495 405.714 343.704C405.77 343.903 405.813 344.105 405.841 344.309Z" fill="#2F2E41"/>
<path opacity="0.2" d="M405.841 344.309C405.833 345.615 405.818 347.443 405.759 349.704C405.751 350.017 405.736 350.338 405.729 350.666C405.654 353.838 405.542 357.755 405.385 362.18C405.378 362.448 405.371 362.709 405.356 362.978C405.147 368.38 404.818 374.671 404.251 384.632C403.2 403.032 401.364 387.161 399.522 393.616C394.404 390.467 388.794 387.169 382.795 383.781C381.714 383.169 380.622 382.555 379.52 381.938C367.524 375.245 354.125 368.231 340.137 361.284C339.585 361.008 339.025 360.732 338.473 360.464C306.431 344.622 271.456 329.214 243.122 318.932C237.653 316.947 232.431 315.156 227.522 313.582C217.182 310.276 208.244 307.963 201.366 306.963C194.204 305.919 189.257 306.292 187.258 308.448C187.183 306.926 187.106 305.469 187.027 304.076C186.997 303.613 186.967 303.158 186.937 302.71C186.983 302.587 187.043 302.47 187.101 302.352C187.109 302.335 187.115 302.317 187.124 302.3C187.138 302.261 187.155 302.224 187.176 302.188C187.198 302.142 187.223 302.097 187.251 302.054C187.275 302.001 187.305 301.951 187.34 301.904C187.407 301.8 187.482 301.688 187.564 301.583C187.624 301.505 187.689 301.43 187.758 301.36C187.781 301.324 187.808 301.291 187.84 301.263C187.87 301.233 187.9 301.195 187.937 301.158C187.953 301.135 187.973 301.114 187.997 301.098C188.056 301.031 188.12 300.968 188.191 300.912C188.457 300.667 188.741 300.442 189.041 300.24C189.145 300.173 189.257 300.106 189.362 300.031C190.114 299.582 190.905 299.202 191.727 298.897C192.01 298.793 192.294 298.696 192.6 298.591C192.712 298.561 192.816 298.524 192.928 298.487C193.092 298.435 193.256 298.382 193.428 298.345C194.278 298.091 195.196 297.875 196.188 297.674C196.487 297.614 196.8 297.554 197.113 297.502C197.367 297.457 197.628 297.412 197.889 297.368C200.105 297.017 202.619 296.756 205.394 296.584C205.655 296.569 205.916 296.554 206.178 296.539C206.483 296.524 206.789 296.51 207.103 296.495C207.364 296.48 207.632 296.472 207.901 296.465C208.162 296.45 208.431 296.442 208.707 296.435C209.46 296.413 210.236 296.39 211.027 296.375C213.28 296.338 215.652 296.353 218.144 296.405C219.3 296.427 220.479 296.465 221.688 296.517C221.762 296.517 221.844 296.524 221.919 296.524C222.971 296.554 224.038 296.607 225.12 296.659C225.881 296.696 226.649 296.733 227.417 296.778C228.141 296.823 228.872 296.868 229.611 296.92C230.185 296.95 230.76 296.995 231.341 297.032C231.834 297.069 232.326 297.106 232.819 297.136C233.408 297.181 233.997 297.226 234.594 297.271C235.415 297.338 236.236 297.405 237.071 297.472C237.899 297.547 238.742 297.621 239.585 297.696C240.428 297.771 241.279 297.853 242.129 297.935C242.219 297.942 242.301 297.95 242.383 297.957C243.159 298.039 243.935 298.114 244.718 298.196C249.06 298.636 253.529 299.151 258.124 299.74C260.87 300.091 263.65 300.467 266.465 300.867C270.74 301.472 275.082 302.128 279.454 302.83C283.833 303.538 288.237 304.287 292.666 305.076C293.785 305.277 294.904 305.478 296.031 305.687C297.403 305.941 298.776 306.2 300.149 306.463C301.014 306.628 301.88 306.792 302.745 306.963C303.775 307.165 304.812 307.366 305.841 307.568C312.623 308.911 319.367 310.343 325.947 311.843C327.029 312.089 328.11 312.343 329.185 312.589C331.333 313.089 333.462 313.597 335.571 314.112C336.153 314.253 336.727 314.395 337.302 314.537C338.742 314.895 340.167 315.253 341.577 315.611V315.619C341.659 315.634 341.741 315.656 341.823 315.679C342.852 315.94 343.874 316.201 344.889 316.47C347.284 317.096 349.639 317.728 351.954 318.365C353.491 318.797 355.013 319.223 356.512 319.656C358.758 320.312 360.959 320.969 363.1 321.625C363.63 321.79 364.159 321.954 364.681 322.111C366.248 322.603 367.785 323.093 369.292 323.58C370.486 323.968 371.649 324.364 372.798 324.759C373.947 325.155 375.074 325.55 376.178 325.946C376.894 326.2 377.595 326.461 378.289 326.714C379.304 327.087 380.289 327.461 381.258 327.841C381.557 327.953 381.848 328.072 382.139 328.184C382.683 328.393 383.213 328.61 383.735 328.826C384.086 328.96 384.429 329.102 384.772 329.251C385.108 329.386 385.451 329.527 385.779 329.669C386.115 329.804 386.443 329.945 386.772 330.095C387.048 330.206 387.316 330.326 387.577 330.445C388.107 330.677 388.637 330.908 389.152 331.147C389.405 331.266 389.659 331.378 389.913 331.497L390.494 331.766C390.577 331.811 390.659 331.848 390.741 331.885C391.375 332.184 391.987 332.482 392.583 332.781C393.143 333.064 393.688 333.348 394.21 333.624C394.829 333.952 395.418 334.273 395.985 334.601C396.097 334.661 396.209 334.728 396.321 334.788C396.702 335.004 397.067 335.228 397.433 335.444C398.149 335.885 398.828 336.317 399.462 336.75C400.089 337.183 400.67 337.608 401.215 338.034C401.215 338.041 401.215 338.041 401.223 338.041C401.484 338.25 401.737 338.459 401.976 338.66C402.364 338.996 402.722 339.317 403.05 339.645C403.16 339.747 403.265 339.854 403.364 339.966C403.407 340.002 403.447 340.042 403.483 340.086C403.64 340.257 403.796 340.429 403.946 340.601C404.125 340.809 404.289 341.018 404.445 341.227C404.52 341.332 404.602 341.436 404.669 341.541C404.759 341.668 404.848 341.802 404.923 341.929C404.99 342.033 405.05 342.145 405.109 342.25C405.268 342.518 405.403 342.801 405.512 343.093C405.594 343.292 405.661 343.496 405.714 343.705C405.77 343.903 405.813 344.105 405.841 344.309Z" fill="black"/>
</g>
<defs>
<linearGradient id="paint0_linear_87_129" x1="15.5" y1="1.40506e-05" x2="582.5" y2="383.5" gradientUnits="userSpaceOnUse">
<stop stop-color="#FF006E"/>
<stop offset="0.333333" stop-color="#FB5607"/>
<stop offset="0.666667" stop-color="#3A86FF"/>
<stop offset="1" stop-color="#8338EC"/>
</linearGradient>
<linearGradient id="paint1_linear_87_129" x1="3.83155e-06" y1="291.5" x2="587" y2="417" gradientUnits="userSpaceOnUse">
<stop stop-color="#FF006E"/>
<stop offset="0.333333" stop-color="#FB5607"/>
<stop offset="0.666667" stop-color="#3A86FF"/>
<stop offset="1" stop-color="#8338EC"/>
</linearGradient>
<linearGradient id="paint2_linear_87_129" x1="420.061" y1="254.034" x2="420.061" y2="319.688" gradientUnits="userSpaceOnUse">
<stop stop-color="#6C63FF"/>
<stop offset="0.305" stop-color="#564FCC"/>
<stop offset="0.75" stop-color="#4C45B3"/>
<stop offset="1" stop-color="#413B99"/>
</linearGradient>
<linearGradient id="paint3_linear_87_129" x1="156" y1="195" x2="194" y2="203" gradientUnits="userSpaceOnUse">
<stop stop-color="#FF006E"/>
<stop offset="0.33" stop-color="#FB5607"/>
<stop offset="0.66" stop-color="#3A86FF"/>
<stop offset="1" stop-color="#8338EC"/>
</linearGradient>
<clipPath id="clip0_87_129">
<rect width="587" height="427" fill="white"/>
</clipPath>
</defs>
</svg>
